<!-- Generator: Adobe Illustrator 21.0.2, SVG Export Plug-In  -->
<svg version="1.1"
	 xmlns="http://www.w3.org/2000/svg" xmlns:xlink="http://www.w3.org/1999/xlink" xmlns:a="http://ns.adobe.com/AdobeSVGViewerExtensions/3.0/"
	 x="0px" y="0px" width="428.711px" height="400.518px" viewBox="0 0 428.711 400.518"
	 style="enable-background:new 0 0 428.711 400.518;" xml:space="preserve">
<style type="text/css">
	.st0{opacity:0.06;}
	.st1{fill:#F2F2F2;}
	.st2{fill:#B5B5B5;}
	.st3{fill:#E1E1E1;}
	.st4{fill:#EDEDED;}
	.st5{fill:#C0C0C0;}
	.st6{fill:#CCCCCC;}
	.st7{fill:#A8A8A8;}
	.st8{fill:#F2F9FA;}
	.st9{fill:#74CBCE;}
	.st10{opacity:0.47;clip-path:url(#SVGID_7_);}
	.st11{fill:#FFFFFF;}
	.st12{opacity:0.47;clip-path:url(#SVGID_8_);}
	.st13{fill:#919191;}
	.st14{fill:#E3E9E9;}
	.st15{fill:#6BBCBF;}
	.st16{opacity:0.47;clip-path:url(#SVGID_9_);}
	.st17{opacity:0.47;clip-path:url(#SVGID_10_);}
	.st18{opacity:0.47;clip-path:url(#SVGID_11_);}
	.st19{opacity:0.43;clip-path:url(#SVGID_12_);}
	.st20{fill:#FAFAFA;}
	.st21{fill:#CDCDCD;}
	.st22{fill:#CECECE;}
	.st23{fill:#E3E3E3;}
	.st24{fill:#BDBDBD;}
	.st25{fill:#F0F0F0;}
	.st26{fill:#D4D4D4;}
	.st27{fill:#A6A6A6;}
	.st28{fill:#858585;}
	.st29{fill:#696969;}
	.st30{fill:#DBDBDB;}
	.st31{fill:#9E9E9E;}
	.st32{fill:#737373;}
	.st33{fill:#F5F5F5;}
	.st34{fill:#D1D1D1;}
	.st35{fill:#878787;}
	.st36{opacity:0.47;clip-path:url(#SVGID_14_);}
	.st37{opacity:0.47;clip-path:url(#SVGID_16_);}
	.st38{opacity:0.47;clip-path:url(#SVGID_18_);}
	.st39{opacity:0.47;clip-path:url(#SVGID_20_);}
	.st40{opacity:0.47;clip-path:url(#SVGID_22_);}
	.st41{opacity:0.43;clip-path:url(#SVGID_24_);}
</style>
<defs>
</defs>
<g>
	<polygon class="st0" points="57.496,398.588 92.085,397.758 152.445,368.055 96.671,334.659 13.78,375.25 	"/>
	<polygon class="st0" points="5.633,304.51 197.648,400.518 241.845,397.943 357.863,339.934 380.33,344.403 409.713,329.711 
		395.025,321.353 428.711,304.51 217.172,198.741 	"/>
	<g>
		<g>
			<g>
				<g>
					<polygon class="st1" points="387.247,116.071 197.701,210.844 8.155,116.071 197.701,21.298 					"/>
					<polygon class="st2" points="387.249,305.619 197.701,400.414 197.701,210.865 387.249,116.071 					"/>
					<polygon class="st3" points="197.701,400.414 8.153,305.619 8.153,116.071 197.701,210.865 					"/>
				</g>
				<polygon class="st4" points="377.14,110.363 187.592,205.158 187.592,184.262 376.547,89.763 				"/>
				<polygon class="st4" points="198.333,20.896 8.785,115.691 8.785,94.795 198.333,0 				"/>
				<polygon class="st5" points="208.442,26.583 18.894,121.377 18.894,100.481 194.857,12.48 				"/>
				<polygon class="st4" points="210.337,205.158 16.305,108.057 20.789,89.467 210.337,184.262 				"/>
				<polygon class="st3" points="197.701,210.844 8.153,116.05 8.785,94.795 197.701,189.948 				"/>
				<polygon class="st4" points="387.247,116.071 197.699,22.792 198.333,0 387.249,95.154 				"/>
				<polygon class="st6" points="342.077,107.002 194.857,33.376 194.857,12.48 362.862,96.605 				"/>
				<polygon class="st2" points="387.249,116.05 197.701,210.844 197.701,189.948 387.249,95.154 				"/>
				<g>
					<polygon class="st7" points="175.85,336.878 173.955,337.825 138.828,318.362 136.933,230.489 138.828,229.541 175.85,248.056 
											"/>
					<polygon class="st8" points="173.955,337.825 136.933,319.31 136.933,230.489 173.955,249.004 					"/>
					<polygon class="st9" points="169.472,308.789 140.747,294.423 140.747,235.442 169.472,249.808 					"/>
					<polygon class="st9" points="169.472,332.732 140.747,318.366 140.747,278.455 169.472,292.821 					"/>
					<g>
						<defs>
							<polygon id="SVGID_6_" points="169.472,288.953 140.747,274.587 140.747,235.442 169.472,249.808 							"/>
						</defs>
						<clipPath id="SVGID_7_">
							<use xlink:href="#SVGID_6_"  style="overflow:visible;"/>
						</clipPath>
						<g class="st10">
							<polygon class="st11" points="179.77,276.973 131.386,238.315 133.87,231.247 182.254,269.905 							"/>
							<polygon class="st11" points="175.755,282.177 130.217,245.793 130.994,243.582 176.532,279.966 							"/>
							<polygon class="st11" points="173.503,288.584 127.965,252.2 129.36,248.23 174.898,284.614 							"/>
						</g>
					</g>
				</g>
				<g>
					<polygon class="st7" points="58.698,282.124 56.802,283.072 21.676,263.609 19.781,175.736 21.676,174.788 58.698,193.303 
											"/>
					<polygon class="st8" points="56.802,283.072 19.781,264.557 19.781,175.736 56.802,194.251 					"/>
					<polygon class="st9" points="52.32,254.035 23.595,239.67 23.595,180.689 52.32,195.054 					"/>
					<polygon class="st9" points="52.32,277.978 23.595,263.613 23.595,223.702 52.32,238.067 					"/>
					<g>
						<defs>
							<polygon id="SVGID_5_" points="52.32,234.199 23.595,219.833 23.595,180.689 52.32,195.054 							"/>
						</defs>
						<clipPath id="SVGID_8_">
							<use xlink:href="#SVGID_5_"  style="overflow:visible;"/>
						</clipPath>
						<g class="st12">
							<polygon class="st11" points="62.618,222.22 14.234,183.562 16.718,176.493 65.102,215.151 							"/>
							<polygon class="st11" points="58.603,227.423 13.065,191.039 13.841,188.829 59.38,225.213 							"/>
							<polygon class="st11" points="56.351,233.83 10.813,197.446 12.208,193.476 57.746,229.86 							"/>
						</g>
					</g>
				</g>
				<g>
					<polygon class="st13" points="216.024,333.712 217.919,334.659 253.046,315.197 254.941,227.323 253.046,226.375 
						216.024,244.89 					"/>
					<polygon class="st14" points="217.919,334.659 254.941,316.144 254.941,227.323 217.919,245.838 					"/>
					<polygon class="st15" points="222.402,305.623 251.127,291.257 251.127,232.276 222.402,246.642 					"/>
					<polygon class="st15" points="222.402,329.566 251.127,315.2 251.127,275.289 222.402,289.655 					"/>
					<g>
						<defs>
							<polygon id="SVGID_4_" points="222.402,285.787 251.127,271.421 251.127,232.276 222.402,246.642 							"/>
						</defs>
						<clipPath id="SVGID_9_">
							<use xlink:href="#SVGID_4_"  style="overflow:visible;"/>
						</clipPath>
						<g class="st16">
							<polygon class="st11" points="212.104,273.807 260.488,235.149 258.004,228.081 209.62,266.739 							"/>
							<polygon class="st11" points="216.119,279.011 261.657,242.627 260.88,240.416 215.342,276.8 							"/>
							<polygon class="st11" points="218.37,285.418 263.909,249.034 262.514,245.064 216.975,281.448 							"/>
						</g>
					</g>
				</g>
				<g>
					<polygon class="st13" points="278.86,302.286 280.755,303.234 315.882,283.771 317.777,195.898 315.882,194.95 278.86,213.465 
											"/>
					<polygon class="st14" points="280.755,303.234 317.777,284.719 317.777,195.898 280.755,214.413 					"/>
					<polygon class="st15" points="285.237,274.197 313.962,259.832 313.962,200.85 285.237,215.216 					"/>
					<polygon class="st15" points="285.237,298.141 313.962,283.775 313.962,243.864 285.237,258.229 					"/>
					<g>
						<defs>
							<polygon id="SVGID_3_" points="285.237,254.361 313.962,239.995 313.962,200.85 285.237,215.216 							"/>
						</defs>
						<clipPath id="SVGID_10_">
							<use xlink:href="#SVGID_3_"  style="overflow:visible;"/>
						</clipPath>
						<g class="st17">
							<polygon class="st11" points="274.939,242.382 323.324,203.724 320.84,196.655 272.455,235.313 							"/>
							<polygon class="st11" points="278.955,247.585 324.493,211.201 323.716,208.991 278.178,245.375 							"/>
							<polygon class="st11" points="281.206,253.992 326.744,217.608 325.349,213.638 279.811,250.022 							"/>
						</g>
					</g>
				</g>
				<g>
					<polygon class="st7" points="120.53,326.284 77.343,304.686 75.467,201.073 77.343,201.073 120.53,222.671 					"/>
					<polygon class="st8" points="118.654,326.284 75.467,304.686 75.467,201.073 118.654,222.671 					"/>
					<polygon class="st9" points="113.425,269.272 79.917,252.514 79.917,206.851 113.425,223.609 					"/>
					<polygon class="st9" points="113.425,320.342 79.917,303.584 79.917,257.027 113.425,273.785 					"/>
					<path class="st9" d="M84.595,257.084c0-0.54-5.212-3.584-6.436-4.196c-1.224-0.612-2.216-0.67-2.216-0.13
						c0,0.54,0.992,1.474,2.216,2.086S84.595,257.624,84.595,257.084z"/>
					<g>
						<defs>
							<polygon id="SVGID_2_" points="113.425,269.272 79.917,252.514 79.917,206.851 113.425,223.609 							"/>
						</defs>
						<clipPath id="SVGID_11_">
							<use xlink:href="#SVGID_2_"  style="overflow:visible;"/>
						</clipPath>
						<g class="st18">
							<polygon class="st11" points="125.438,255.298 68.997,210.203 71.894,201.957 128.336,247.053 							"/>
							<polygon class="st11" points="120.754,261.368 67.633,218.925 68.539,216.347 121.66,258.789 							"/>
							<polygon class="st11" points="118.128,268.842 65.006,226.4 66.634,221.768 119.755,264.211 							"/>
						</g>
					</g>
					<g>
						<defs>
							<polygon id="SVGID_1_" points="113.425,320.342 79.917,303.584 79.917,257.027 113.425,273.785 							"/>
						</defs>
						<clipPath id="SVGID_12_">
							<use xlink:href="#SVGID_1_"  style="overflow:visible;"/>
						</clipPath>
						<g class="st19">
							<polygon class="st11" points="123.645,295.822 70.721,256.468 71.705,252.92 124.629,292.274 							"/>
							<polygon class="st11" points="122.416,301.252 69.492,261.898 70.475,258.35 123.399,297.704 							"/>
						</g>
					</g>
				</g>
				<g>
					<polygon class="st20" points="72.114,302.472 29.422,323.818 82.69,350.452 125.383,329.106 					"/>
					<polygon class="st21" points="58.787,397.758 5.518,371.118 5.518,359.165 58.787,385.806 					"/>
					<polygon class="st21" points="82.691,362.231 29.422,335.59 29.422,323.638 82.691,350.278 					"/>
					<polygon class="st20" points="17.469,341.421 70.738,368.055 82.69,362.079 29.422,335.445 					"/>
					<polygon class="st20" points="5.518,359.323 58.786,385.957 70.739,379.981 17.47,353.346 					"/>
					<polygon class="st22" points="125.383,329.106 82.691,350.13 82.691,362.083 82.691,362.082 70.739,368.06 70.739,380.013 
						58.786,385.99 58.786,397.942 125.384,364.636 					"/>
					<polygon class="st21" points="70.739,380.014 17.469,353.374 17.469,341.421 70.739,368.061 					"/>
					<g>
						<polygon class="st23" points="81.133,322.08 81.133,348.329 83.713,349.619 83.713,323.371 						"/>
						<polygon class="st23" points="118.225,303.53 118.225,329.779 120.805,331.069 120.805,304.821 						"/>
						<polygon class="st22" points="82.691,326.462 125.384,305.111 125.384,302.531 82.691,323.882 						"/>
						<polygon class="st11" points="82.811,323.757 125.503,302.411 122.923,301.121 80.231,322.467 						"/>
						<polygon class="st22" points="83.713,323.371 83.713,349.619 86.293,348.329 86.293,322.08 						"/>
						<polygon class="st22" points="120.805,304.821 120.805,331.069 123.385,329.779 123.385,303.53 						"/>
						<polygon class="st23" points="54.916,362.713 54.916,397.297 57.496,398.588 57.496,362.73 						"/>
						<polygon class="st22" points="57.496,362.73 57.496,398.588 60.076,397.297 60.076,361.44 						"/>
						<polygon class="st22" points="54.815,369.836 85.003,324.55 83.179,323.638 52.99,368.924 						"/>
						<polygon class="st11" points="52.981,369.008 83.179,323.638 80.231,322.467 51.156,368.096 						"/>
					</g>
					<g>
						<polygon class="st23" points="29.977,297.697 29.977,323.946 32.557,325.236 32.557,298.988 						"/>
						<polygon class="st23" points="67.069,279.147 67.069,305.396 69.649,306.686 69.649,280.438 						"/>
						<polygon class="st22" points="31.535,302.079 74.227,280.728 74.227,278.148 31.535,299.499 						"/>
						<polygon class="st11" points="31.655,299.375 74.347,278.028 71.767,276.738 29.074,298.084 						"/>
						<polygon class="st22" points="32.557,298.988 32.557,325.236 35.137,323.946 35.137,297.697 						"/>
						<polygon class="st22" points="69.649,280.438 69.649,306.686 72.229,305.396 72.229,279.147 						"/>
						<polygon class="st23" points="3.76,338.33 3.76,372.914 6.34,374.205 6.34,338.348 						"/>
						<polygon class="st22" points="6.34,338.348 6.34,374.205 8.92,372.914 8.92,337.057 						"/>
						<polygon class="st22" points="3.659,345.453 33.847,300.167 32.023,299.255 1.834,344.541 						"/>
						<polygon class="st11" points="1.825,344.625 32.023,299.255 29.074,298.084 0,343.713 						"/>
					</g>
				</g>
			</g>
			<g>
				<g>
					<polygon class="st24" points="348.677,285.574 333.426,277.948 333.426,227.719 348.677,235.346 					"/>
					<polygon class="st25" points="375.207,222.081 348.677,235.346 333.426,227.738 359.956,214.473 					"/>
					<g>
						<polygon class="st26" points="375.207,272.275 348.677,285.543 348.677,235.314 375.207,222.046 						"/>
						<polygon class="st27" points="371.926,234.575 353.201,243.939 353.201,241.995 371.926,232.631 						"/>
						<polygon class="st27" points="371.926,240.396 353.201,249.76 353.201,247.816 371.926,238.451 						"/>
						<polygon class="st27" points="371.926,246.216 353.201,255.581 353.201,253.637 371.926,244.272 						"/>
						<polygon class="st27" points="371.926,252.037 353.201,261.401 353.201,259.457 371.926,250.093 						"/>
					</g>
				</g>
				<g>
					<path class="st28" d="M354.372,224.714c0.912,0.456,1.652,0.087,1.652-0.826v-22.726c0-0.912-0.74-2.022-1.652-2.478
						l-6.669-3.38c-0.912-0.456-1.652-0.087-1.652,0.826s0.74,2.022,1.652,2.478l3.048,1.569c1.207,0.604,1.969,1.837,1.969,3.187
						v18.872C352.72,223.148,353.459,224.257,354.372,224.714z"/>
					<path class="st24" d="M350.994,197.612c0,0,2.936,1.259,3.685,2.254c0.75,0.994,0.625,5.429,0.625,5.429
						s-0.541-4.311-1.133-5.195C353.578,199.216,350.994,197.612,350.994,197.612z"/>
				</g>
			</g>
			<g>
				<path class="st0" d="M256.745,131.319h13.606l9.227-3.82c0,0,6.268,7.417,9.965,7.364c0.876-0.013,17.071-7.732,14.451-12.027
					c-2.62-4.296-4.639-4.94-4.639-4.94l16.774-9.987l-67.268-53.17l-71.101,27.24L256.745,131.319z"/>
				<g>
					<polygon class="st2" points="306.077,106.647 306.077,57.315 256.745,81.987 256.745,131.319 					"/>
					<polygon class="st25" points="164.255,35.733 256.745,81.979 306.077,57.313 213.586,11.067 					"/>
					<g>
						<polygon class="st26" points="164.253,85.063 256.745,131.319 256.745,81.987 164.253,35.731 						"/>
						<polygon class="st2" points="179.516,55.439 241.482,86.429 241.482,83.394 179.516,52.404 						"/>
						<polygon class="st2" points="179.516,64.183 241.482,95.173 241.482,92.138 179.516,61.148 						"/>
						<polygon class="st2" points="179.516,72.928 241.482,103.918 241.482,100.883 179.516,69.893 						"/>
						<polygon class="st2" points="179.516,81.672 241.482,112.662 241.482,109.627 179.516,78.637 						"/>
					</g>
					<g>
						<g>
							<g>
								<path class="st29" d="M236.558,48.166c-5.655,2.828-5.423,7.745-5.108,11.448c0.282,3.313,2.952,6.584,8.01,9.113
									c10.714,5.357,28.085,5.357,38.799,0c5.357-2.678,8.035-6.189,8.035-9.699c0-3.511,0.855-7.041-4.502-9.719
									C271.078,43.952,247.272,42.809,236.558,48.166z"/>
								<path class="st30" d="M239.461,45.922c-10.714,5.357-10.714,14.042,0,19.399c10.714,5.357,28.085,5.357,38.799,0
									c10.714-5.357,10.714-14.042,0-19.399C267.545,40.565,250.174,40.565,239.461,45.922z"/>
								<path class="st31" d="M241.354,46.869c-9.668,4.834-9.668,12.672,0,17.506c9.668,4.834,25.343,4.834,35.012,0
									c9.668-4.834,9.668-12.672,0-17.506S251.022,42.035,241.354,46.869z"/>
							</g>
							<path class="st32" d="M261.606,52.645v15.239c-2.017,0.146-4.091,0.164-6.311,0l0.433-15.727L261.606,52.645z"/>
							<g>
								<g>
									<path class="st29" d="M265.072,53.419c3.446,1.723,3.446,4.517,0,6.24c-3.446,1.723-9.033,1.723-12.479,0
										c-3.446-1.723-3.446-4.517,0-6.24C256.039,51.696,261.626,51.696,265.072,53.419z"/>
									<g>
										<path class="st29" d="M249.583,54.573c1.156,0.155,2.365-0.059,3.12-0.524c0.171-0.105,0.353-0.206,0.546-0.303
											c0.193-0.096,0.395-0.187,0.605-0.273c0.929-0.377,1.357-0.982,1.047-1.56l-2.043-3.812
											c-0.503-0.94-2.636-1.382-4.34-0.912c-1.749,0.482-3.363,1.087-4.787,1.799c-1.423,0.712-2.633,1.519-3.598,2.393
											c-0.117,0.106-0.316-0.681-0.378-0.57c-0.434,0.778,0.559,2.52,2.203,2.74L249.583,54.573z"/>
										<path class="st29" d="M247.807,65.681c3.465,1.04,7.469,1.572,11.516,1.529c1.914-0.021,3.333-1.98,2.837-2.905
											l-2.109-2.78c-0.309-0.577-1.282-0.994-2.462-1.089c-0.539-0.043-1.069-0.114-1.579-0.211
											c-1.116-0.213-2.375-0.095-3.22,0.328l-5.582,2.791c-0.49,0.245-0.779-0.588-0.858-0.277
											C246.209,63.63,246.73,65.357,247.807,65.681z"/>
										<path class="st29" d="M251.461,57.95c-0.195-0.255-0.336-0.52-0.423-0.789c-0.189-0.59-1.023-1.076-2.178-1.231
											l-7.622-1.021c-1.849-0.248-3.711-0.333-3.752,0.624c-0.087,2.024,0.981,4.787,3.062,6.519
											c1.004,0.836,3.297,0.988,4.675,0.299l5.582-2.791C251.651,59.137,251.887,58.508,251.461,57.95z"/>
										<path class="st29" d="M260.076,52.642c0.539,0.043,1.069,0.114,1.579,0.211c1.116,0.213,2.375,0.095,3.22-0.328
											l5.582-2.791c0.837-0.418,1.127-2.063,0.793-2.572c-0.216-0.329-0.734,0.432-1.391,0.235
											c-3.465-1.041-7.469-1.572-11.516-1.529c-1.914,0.021-3.266-0.242-2.77,0.683l2.042,5.002
											C257.923,52.13,258.896,52.547,260.076,52.642z"/>
										<path class="st29" d="M264.807,64.976c0.503,0.94,2.636,1.382,4.34,0.912c1.749-0.482,3.363-1.087,4.787-1.799
											c1.423-0.712,2.633-1.519,3.598-2.393c0.417-0.378,0.546-1.846,0.318-2.218c-0.287-0.467-1.096,0.188-2.142,0.048
											l-7.625-1.021c-1.156-0.155-2.366,0.059-3.12,0.524c-0.171,0.105-0.353,0.206-0.545,0.303
											c-0.193,0.096-0.395,0.187-0.605,0.273c-0.929,0.377-1.357,0.982-1.047,1.56L264.807,64.976z"/>
										<path class="st29" d="M280.176,56.741c0.07-2.009-0.993-3.995-3.059-5.715c-1.004-0.836-3.297-0.988-4.675-0.299
											l-5.581,2.791c-0.845,0.422-1.081,1.052-0.655,1.61c0.195,0.255,0.336,0.52,0.423,0.789
											c0.189,0.59,1.023,1.076,2.178,1.231l7.621,1.021C278.309,58.421,280.141,57.716,280.176,56.741z"/>
									</g>
								</g>
								<g>
									<path class="st28" d="M265.072,52.228c3.446,1.723,3.446,4.517,0,6.24c-3.446,1.723-9.033,1.723-12.479,0
										c-3.446-1.723-3.446-4.517,0-6.24C256.039,50.505,261.626,50.505,265.072,52.228z"/>
									<g>
										<path class="st28" d="M249.583,53.382c1.156,0.155,2.365-0.059,3.12-0.524c0.171-0.105,0.353-0.206,0.546-0.303
											c0.193-0.096,0.395-0.187,0.605-0.273c0.929-0.377,1.357-0.982,1.047-1.56l-2.043-3.812
											c-0.503-0.94-2.636-1.382-4.34-0.912c-1.749,0.482-3.363,1.087-4.787,1.799c-1.423,0.712-2.633,1.519-3.598,2.393
											c-0.94,0.852-0.055,1.918,1.825,2.17L249.583,53.382z"/>
										<path class="st28" d="M247.807,64.49c3.465,1.04,7.469,1.572,11.516,1.529c1.914-0.021,3.266-0.949,2.77-1.874
											l-2.042-3.811c-0.309-0.577-1.282-0.994-2.462-1.089c-0.539-0.043-1.069-0.114-1.579-0.211
											c-1.116-0.213-2.375-0.095-3.22,0.328l-5.582,2.791C245.831,62.841,246.136,63.988,247.807,64.49z"/>
										<path class="st28" d="M251.461,56.759c-0.195-0.255-0.336-0.52-0.423-0.789c-0.189-0.59-1.023-1.076-2.178-1.231
											l-7.622-1.021c-1.849-0.248-3.706,0.428-3.747,1.385c-0.087,2.024,0.976,4.026,3.057,5.758
											c1.004,0.836,3.297,0.988,4.675,0.299l5.582-2.791C251.651,57.946,251.887,57.317,251.461,56.759z"/>
										<path class="st28" d="M260.076,51.451c0.539,0.043,1.069,0.114,1.579,0.211c1.116,0.213,2.375,0.095,3.22-0.328
											l5.582-2.791c1.378-0.689,1.073-1.836-0.598-2.338c-3.465-1.041-7.469-1.572-11.516-1.529
											c-1.914,0.021-3.266,0.949-2.77,1.874l2.042,3.811C257.923,50.939,258.896,51.356,260.076,51.451z"/>
										<path class="st28" d="M264.807,63.785c0.503,0.94,2.636,1.382,4.34,0.912c1.749-0.482,3.363-1.087,4.787-1.799
											c1.423-0.712,2.633-1.519,3.598-2.393c0.94-0.852,0.055-1.918-1.825-2.17l-7.625-1.021
											c-1.156-0.155-2.366,0.059-3.12,0.524c-0.171,0.105-0.353,0.206-0.545,0.303c-0.193,0.096-0.395,0.187-0.605,0.273
											c-0.929,0.377-1.357,0.982-1.047,1.56L264.807,63.785z"/>
										<path class="st28" d="M280.176,55.55c0.07-2.009-0.993-3.995-3.059-5.715c-1.004-0.836-3.297-0.988-4.675-0.299
											l-5.581,2.791c-0.845,0.422-1.081,1.052-0.655,1.61c0.195,0.255,0.336,0.52,0.423,0.789
											c0.189,0.59,1.023,1.076,2.178,1.231l7.621,1.021C278.309,57.23,280.141,56.525,280.176,55.55z"/>
									</g>
								</g>
							</g>
						</g>
						<path class="st24" d="M264.584,54.257c0,0-0.62,3.376-6.133,3.373c-5.513-0.002-6.155-3.373-6.155-3.373
							s2.825,2.282,5.572,2.282C259.892,56.539,261.934,56.373,264.584,54.257z"/>
						<path class="st24" d="M268.471,58.455c0,0,7.742,0.344,7.097,1.305c-0.645,0.961-6.75,4.222-7.692,3.907
							c-0.943-0.315-2.782-2.3-2.782-2.3s2.037,1.275,2.831,1.109s6.998-2.287,5.856-2.716
							C272.64,59.332,268.471,58.455,268.471,58.455z"/>
						<path class="st24" d="M258.45,60.57c0,0,2.825,3.923,0.989,4.072c-1.836,0.149-11.464-0.695-11.464-1.241
							c0-0.546,5.558-3.641,5.558-3.641s-4.516,2.807-3.97,3.026c0.546,0.219,8.544,1.395,8.888,0.881
							C258.794,63.153,258.45,60.57,258.45,60.57z"/>
						<path class="st24" d="M250.13,57.264c0,0-6.572,3.507-7.416,3.259c-0.844-0.248-3.226-1.813-4.417-5.175
							c1.191,0.596,1.687,4.034,4.417,3.934C245.443,59.183,250.13,57.264,250.13,57.264z"/>
					</g>
					<g>
						<g>
							<g>
								<path class="st29" d="M188.266,25.713c-5.655,2.828-5.423,7.745-5.108,11.448c0.282,3.313,2.952,6.584,8.011,9.113
									c10.714,5.357,28.085,5.357,38.798,0c5.357-2.678,8.035-6.189,8.035-9.699c0-3.511,0.855-7.041-4.502-9.719
									C222.786,21.499,198.98,20.356,188.266,25.713z"/>
								<path class="st30" d="M191.169,23.469c-10.714,5.357-10.714,14.042,0,19.399c10.714,5.357,28.085,5.357,38.798,0
									c10.714-5.357,10.714-14.042,0-19.399C219.253,18.112,201.883,18.112,191.169,23.469z"/>
								<path class="st31" d="M193.062,24.415c-9.668,4.834-9.668,12.672,0,17.506c9.668,4.834,25.343,4.834,35.012,0
									s9.668-12.672,0-17.506S202.73,19.581,193.062,24.415z"/>
							</g>
							<path class="st32" d="M213.314,30.192v15.239c-2.017,0.146-4.091,0.164-6.311,0l0.433-15.727L213.314,30.192z"/>
							<g>
								<g>
									<path class="st29" d="M216.78,30.966c3.446,1.723,3.446,4.517,0,6.24c-3.446,1.723-9.033,1.723-12.479,0
										c-3.446-1.723-3.446-4.516,0-6.24C207.747,29.243,213.334,29.243,216.78,30.966z"/>
									<g>
										<path class="st29" d="M201.291,32.12c1.156,0.155,2.365-0.059,3.12-0.524c0.171-0.105,0.353-0.206,0.546-0.303
											s0.395-0.187,0.605-0.273c0.929-0.377,1.357-0.982,1.047-1.56l-2.043-3.812c-0.503-0.94-2.636-1.382-4.34-0.912
											c-1.749,0.482-3.363,1.087-4.787,1.799c-1.423,0.712-2.633,1.519-3.598,2.393c-0.117,0.106-0.316-0.681-0.378-0.57
											c-0.434,0.778,0.559,2.52,2.203,2.74L201.291,32.12z"/>
										<path class="st29" d="M199.515,43.228c3.465,1.041,7.469,1.572,11.516,1.529c1.914-0.021,3.333-1.98,2.837-2.905
											l-2.109-2.78c-0.309-0.577-1.282-0.994-2.462-1.089c-0.539-0.043-1.069-0.114-1.579-0.211
											c-1.116-0.213-2.375-0.095-3.22,0.328l-5.582,2.791c-0.49,0.245-0.779-0.588-0.858-0.277
											C197.917,41.177,198.438,42.904,199.515,43.228z"/>
										<path class="st29" d="M203.169,35.496c-0.195-0.255-0.336-0.52-0.423-0.789c-0.189-0.59-1.023-1.076-2.177-1.231
											l-7.622-1.021c-1.849-0.248-3.711-0.333-3.752,0.624c-0.087,2.024,0.981,4.787,3.062,6.52
											c1.004,0.836,3.297,0.988,4.675,0.299l5.582-2.791C203.359,36.684,203.595,36.055,203.169,35.496z"/>
										<path class="st29" d="M211.784,30.188c0.539,0.043,1.069,0.114,1.579,0.211c1.116,0.213,2.375,0.095,3.22-0.328
											l5.581-2.791c0.837-0.419,1.127-2.063,0.793-2.573c-0.216-0.329-0.735,0.432-1.391,0.235
											c-3.465-1.041-7.469-1.572-11.516-1.529c-1.914,0.021-3.266-0.242-2.77,0.682l2.042,5.002
											C209.631,29.677,210.604,30.094,211.784,30.188z"/>
										<path class="st29" d="M216.515,42.523c0.504,0.94,2.636,1.382,4.34,0.912c1.749-0.482,3.364-1.087,4.787-1.799
											c1.423-0.712,2.633-1.519,3.598-2.393c0.417-0.378,0.546-1.846,0.317-2.218c-0.287-0.467-1.096,0.188-2.142,0.048
											l-7.625-1.021c-1.156-0.155-2.365,0.059-3.12,0.524c-0.171,0.105-0.353,0.206-0.546,0.303
											c-0.193,0.096-0.395,0.187-0.605,0.273c-0.929,0.377-1.357,0.982-1.047,1.56L216.515,42.523z"/>
										<path class="st29" d="M231.884,34.288c0.07-2.009-0.993-3.995-3.059-5.715c-1.004-0.836-3.297-0.988-4.675-0.299
											l-5.582,2.791c-0.845,0.422-1.081,1.052-0.655,1.61c0.195,0.255,0.336,0.52,0.423,0.789
											c0.189,0.59,1.023,1.076,2.177,1.231l7.621,1.021C230.016,35.968,231.849,35.263,231.884,34.288z"/>
									</g>
								</g>
								<g>
									<path class="st28" d="M216.78,29.775c3.446,1.723,3.446,4.516,0,6.24c-3.446,1.723-9.033,1.723-12.479,0
										c-3.446-1.723-3.446-4.517,0-6.24C207.747,28.052,213.334,28.052,216.78,29.775z"/>
									<g>
										<path class="st28" d="M201.291,30.929c1.156,0.155,2.365-0.059,3.12-0.524c0.171-0.105,0.353-0.206,0.546-0.303
											s0.395-0.187,0.605-0.273c0.929-0.377,1.357-0.982,1.047-1.56l-2.043-3.812c-0.503-0.94-2.636-1.382-4.34-0.912
											c-1.749,0.482-3.363,1.087-4.787,1.799s-2.633,1.519-3.598,2.393c-0.939,0.852-0.055,1.918,1.825,2.17L201.291,30.929z"/>
										<path class="st28" d="M199.515,42.036c3.465,1.041,7.469,1.572,11.516,1.529c1.914-0.021,3.266-0.949,2.77-1.874
											l-2.042-3.811c-0.309-0.577-1.282-0.994-2.462-1.089c-0.539-0.043-1.069-0.114-1.579-0.211
											c-1.116-0.213-2.375-0.095-3.22,0.328l-5.582,2.791C197.539,40.388,197.844,41.535,199.515,42.036z"/>
										<path class="st28" d="M203.169,34.305c-0.195-0.255-0.336-0.52-0.423-0.789c-0.189-0.59-1.023-1.076-2.177-1.231
											l-7.622-1.021c-1.849-0.248-3.706,0.428-3.747,1.385c-0.087,2.024,0.976,4.026,3.057,5.758
											c1.004,0.836,3.297,0.988,4.675,0.299l5.582-2.791C203.359,35.493,203.595,34.863,203.169,34.305z"/>
										<path class="st28" d="M211.784,28.997c0.539,0.043,1.069,0.114,1.579,0.211c1.116,0.213,2.375,0.095,3.22-0.328
											l5.581-2.791c1.378-0.689,1.073-1.836-0.598-2.338c-3.465-1.041-7.469-1.572-11.516-1.529
											c-1.914,0.021-3.266,0.949-2.77,1.874l2.042,3.811C209.631,28.486,210.604,28.903,211.784,28.997z"/>
										<path class="st28" d="M216.515,41.332c0.504,0.94,2.636,1.382,4.34,0.912c1.749-0.482,3.364-1.087,4.787-1.799
											c1.423-0.712,2.633-1.519,3.598-2.393c0.939-0.852,0.054-1.918-1.825-2.17l-7.625-1.021
											c-1.156-0.155-2.365,0.059-3.12,0.524c-0.171,0.105-0.353,0.206-0.546,0.303c-0.193,0.096-0.395,0.187-0.605,0.273
											c-0.929,0.377-1.357,0.982-1.047,1.56L216.515,41.332z"/>
										<path class="st28" d="M231.884,33.097c0.07-2.009-0.993-3.995-3.059-5.715c-1.004-0.836-3.297-0.988-4.675-0.299
											l-5.582,2.791c-0.845,0.422-1.081,1.052-0.655,1.61c0.195,0.255,0.336,0.52,0.423,0.789
											c0.189,0.59,1.023,1.076,2.177,1.231l7.621,1.021C230.016,34.777,231.849,34.072,231.884,33.097z"/>
									</g>
								</g>
							</g>
						</g>
						<path class="st24" d="M216.292,31.803c0,0-0.62,3.376-6.133,3.373c-5.513-0.002-6.155-3.373-6.155-3.373
							s2.825,2.282,5.572,2.282C211.601,34.086,213.642,33.92,216.292,31.803z"/>
						<path class="st24" d="M220.179,36.002c0,0,7.742,0.343,7.097,1.305c-0.645,0.962-6.749,4.222-7.693,3.907
							c-0.943-0.315-2.782-2.3-2.782-2.3s2.037,1.275,2.831,1.109c0.794-0.166,6.998-2.287,5.856-2.716
							C224.348,36.878,220.179,36.002,220.179,36.002z"/>
						<path class="st24" d="M210.158,38.117c0,0,2.825,3.923,0.988,4.072c-1.836,0.149-11.464-0.695-11.464-1.241
							c0-0.546,5.558-3.641,5.558-3.641s-4.516,2.807-3.97,3.026c0.546,0.219,8.544,1.395,8.888,0.881
							C210.502,40.7,210.158,38.117,210.158,38.117z"/>
						<path class="st24" d="M201.838,34.811c0,0-6.572,3.507-7.416,3.259c-0.844-0.248-3.226-1.813-4.417-5.175
							c1.191,0.596,1.687,4.034,4.417,3.934C197.152,36.729,201.838,34.811,201.838,34.811z"/>
					</g>
					<g>
						<g>
							<path class="st29" d="M296.869,128.079c1.373,0.687,2.486,0.13,2.486-1.243V92.636c0-1.373-1.113-3.043-2.486-3.729
								l-10.037-5.087c-1.373-0.687-2.486-0.13-2.486,1.243c0,1.373,1.113,3.043,2.486,3.729l4.587,2.362
								c1.816,0.909,2.964,2.765,2.964,4.796v28.401C294.383,125.723,295.496,127.393,296.869,128.079z"/>
							<path class="st24" d="M294.1,88.868c0,0,2.726,0.846,3.29,1.88c0.564,1.034,0.658,8.554,0.658,8.554
								s-0.869-7.355-1.621-8.201c-0.752-0.846-5.811-3.44-5.811-3.44L294.1,88.868z"/>
						</g>
						<g>
							<path class="st29" d="M288.129,132.215c1.373,0.687,2.486,0.13,2.486-1.243V96.772c0-1.373-1.113-3.043-2.486-3.729
								l-10.037-5.087c-1.373-0.687-2.486-0.13-2.486,1.243c0,1.373,1.113,3.043,2.486,3.729l4.587,2.362
								c1.816,0.909,2.964,2.765,2.964,4.796v28.401C285.643,129.859,286.756,131.529,288.129,132.215z"/>
							<path class="st24" d="M283.046,91.429c0,0,4.418,1.895,5.546,3.391c1.128,1.496,0.94,8.17,0.94,8.17
								s-0.814-6.487-1.705-7.818C286.934,93.843,283.046,91.429,283.046,91.429z"/>
						</g>
					</g>
				</g>
			</g>
			<g>
				<path class="st0" d="M179.489,165.662h13.606l9.228-3.82c0,0,6.268,7.417,9.965,7.364c0.876-0.013,17.071-7.732,14.451-12.027
					c-2.62-4.296-4.639-4.94-4.639-4.94l16.774-9.987l-67.268-53.17l-71.101,27.24L179.489,165.662z"/>
				<g>
					<polygon class="st2" points="228.821,140.991 228.821,91.658 179.489,116.33 179.489,165.662 					"/>
					<polygon class="st25" points="86.999,70.076 179.49,116.322 228.821,91.656 136.331,45.411 					"/>
					<g>
						<polygon class="st26" points="86.997,119.407 179.489,165.662 179.489,116.33 86.997,70.074 						"/>
						<polygon class="st2" points="102.26,89.782 164.227,120.772 164.227,117.737 102.26,86.747 						"/>
						<polygon class="st2" points="102.26,98.527 164.227,129.517 164.227,126.481 102.26,95.492 						"/>
						<polygon class="st2" points="102.26,107.271 164.227,138.261 164.227,135.226 102.26,104.236 						"/>
						<polygon class="st2" points="102.26,116.016 164.227,147.006 164.227,143.971 102.26,112.981 						"/>
					</g>
					<g>
						<g>
							<g>
								<path class="st29" d="M159.303,82.509c-5.655,2.828-5.423,7.745-5.108,11.448c0.282,3.313,2.952,6.584,8.011,9.113
									c10.714,5.357,28.085,5.357,38.798,0c5.357-2.678,8.035-6.189,8.035-9.7c0-3.511,0.855-7.04-4.502-9.719
									C193.823,78.296,170.017,77.152,159.303,82.509z"/>
								<path class="st30" d="M162.205,80.265c-10.714,5.357-10.714,14.042,0,19.399c10.714,5.357,28.085,5.357,38.798,0
									c10.714-5.357,10.714-14.042,0-19.399C190.289,74.908,172.919,74.908,162.205,80.265z"/>
								<path class="st31" d="M164.098,81.212c-9.668,4.834-9.668,12.672,0,17.506c9.668,4.834,25.343,4.834,35.012,0
									c9.668-4.834,9.668-12.672,0-17.506C189.442,76.378,173.766,76.378,164.098,81.212z"/>
							</g>
							<path class="st32" d="M184.35,86.988l0,15.239c-2.016,0.146-4.091,0.164-6.311,0l0.433-15.727L184.35,86.988z"/>
							<g>
								<g>
									<path class="st29" d="M187.817,87.762c3.446,1.723,3.446,4.517,0,6.24s-9.033,1.723-12.479,0
										c-3.446-1.723-3.446-4.517,0-6.24C178.783,86.039,184.371,86.039,187.817,87.762z"/>
									<g>
										<path class="st29" d="M172.327,88.916c1.156,0.155,2.365-0.059,3.12-0.524c0.171-0.105,0.353-0.206,0.546-0.303
											c0.193-0.096,0.395-0.187,0.605-0.273c0.929-0.377,1.357-0.982,1.047-1.56l-2.043-3.812
											c-0.504-0.94-2.636-1.382-4.34-0.912c-1.749,0.482-3.363,1.087-4.787,1.799s-2.633,1.519-3.598,2.393
											c-0.117,0.106-0.316-0.681-0.378-0.57c-0.434,0.778,0.559,2.52,2.203,2.74L172.327,88.916z"/>
										<path class="st29" d="M170.551,100.024c3.465,1.04,7.469,1.572,11.516,1.528c1.914-0.021,3.333-1.98,2.837-2.905
											l-2.109-2.78c-0.309-0.577-1.282-0.994-2.462-1.089c-0.539-0.043-1.069-0.114-1.579-0.211
											c-1.116-0.213-2.375-0.095-3.22,0.328l-5.582,2.791c-0.49,0.245-0.779-0.588-0.858-0.277
											C168.953,97.974,169.474,99.701,170.551,100.024z"/>
										<path class="st29" d="M174.205,92.293c-0.195-0.255-0.336-0.52-0.423-0.789c-0.189-0.59-1.023-1.076-2.177-1.231
											l-7.622-1.021c-1.849-0.248-3.711-0.333-3.752,0.624c-0.087,2.024,0.981,4.787,3.062,6.52
											c1.004,0.836,3.297,0.988,4.675,0.299l5.582-2.791C174.395,93.48,174.631,92.851,174.205,92.293z"/>
										<path class="st29" d="M182.82,86.985c0.539,0.043,1.069,0.114,1.579,0.211c1.116,0.213,2.375,0.095,3.22-0.328
											l5.581-2.791c0.837-0.419,1.127-2.064,0.793-2.573c-0.216-0.329-0.735,0.432-1.391,0.235
											c-3.465-1.04-7.469-1.572-11.516-1.529c-1.914,0.021-3.266-0.242-2.77,0.683l2.042,5.002
											C180.668,86.473,181.64,86.89,182.82,86.985z"/>
										<path class="st29" d="M187.552,99.319c0.504,0.94,2.636,1.382,4.34,0.912c1.749-0.482,3.363-1.087,4.787-1.799
											c1.423-0.712,2.633-1.519,3.598-2.393c0.417-0.378,0.546-1.846,0.318-2.218c-0.287-0.467-1.096,0.188-2.142,0.048
											l-7.625-1.021c-1.156-0.155-2.366,0.059-3.12,0.524c-0.171,0.105-0.353,0.206-0.546,0.303
											c-0.193,0.096-0.395,0.187-0.605,0.273c-0.929,0.377-1.357,0.982-1.047,1.56L187.552,99.319z"/>
										<path class="st29" d="M202.92,91.085c0.07-2.009-0.993-3.995-3.059-5.715c-1.004-0.836-3.297-0.988-4.675-0.299
											l-5.581,2.791c-0.845,0.422-1.081,1.052-0.655,1.61c0.195,0.255,0.336,0.52,0.423,0.789
											c0.189,0.59,1.023,1.076,2.178,1.231l7.621,1.021C201.053,92.765,202.886,92.059,202.92,91.085z"/>
									</g>
								</g>
								<g>
									<path class="st28" d="M187.817,86.571c3.446,1.723,3.446,4.517,0,6.24s-9.033,1.723-12.479,0
										c-3.446-1.723-3.446-4.517,0-6.24C178.783,84.848,184.371,84.848,187.817,86.571z"/>
									<g>
										<path class="st28" d="M172.327,87.725c1.156,0.155,2.365-0.059,3.12-0.524c0.171-0.105,0.353-0.206,0.546-0.303
											c0.193-0.096,0.395-0.187,0.605-0.273c0.929-0.377,1.357-0.982,1.047-1.56l-2.043-3.812
											c-0.504-0.94-2.636-1.382-4.34-0.912c-1.749,0.482-3.363,1.087-4.787,1.799s-2.633,1.519-3.598,2.393
											c-0.939,0.852-0.054,1.918,1.825,2.17L172.327,87.725z"/>
										<path class="st28" d="M170.551,98.833c3.465,1.04,7.469,1.572,11.516,1.528c1.914-0.021,3.266-0.949,2.77-1.874
											l-2.042-3.811c-0.309-0.577-1.282-0.994-2.462-1.089c-0.539-0.043-1.069-0.114-1.579-0.211
											c-1.116-0.213-2.375-0.095-3.22,0.328l-5.582,2.791C168.575,97.184,168.88,98.331,170.551,98.833z"/>
										<path class="st28" d="M174.205,91.102c-0.195-0.255-0.336-0.52-0.423-0.789c-0.189-0.59-1.023-1.076-2.177-1.231
											l-7.622-1.021c-1.849-0.248-3.706,0.428-3.747,1.385c-0.087,2.024,0.976,4.026,3.057,5.758
											c1.004,0.836,3.297,0.988,4.675,0.299l5.582-2.791C174.395,92.289,174.631,91.66,174.205,91.102z"/>
										<path class="st28" d="M182.82,85.794c0.539,0.043,1.069,0.114,1.579,0.211c1.116,0.213,2.375,0.095,3.22-0.328
											l5.581-2.791c1.378-0.689,1.074-1.836-0.598-2.338c-3.465-1.041-7.469-1.572-11.516-1.529
											c-1.914,0.021-3.266,0.949-2.77,1.874l2.042,3.811C180.668,85.282,181.64,85.699,182.82,85.794z"/>
										<path class="st28" d="M187.552,98.128c0.504,0.94,2.636,1.382,4.34,0.912c1.749-0.482,3.363-1.087,4.787-1.799
											c1.423-0.712,2.633-1.519,3.598-2.393c0.939-0.852,0.055-1.918-1.825-2.17l-7.625-1.021
											c-1.156-0.155-2.366,0.059-3.12,0.524c-0.171,0.105-0.353,0.206-0.546,0.303c-0.193,0.096-0.395,0.187-0.605,0.273
											c-0.929,0.377-1.357,0.982-1.047,1.56L187.552,98.128z"/>
										<path class="st28" d="M202.92,89.894c0.07-2.009-0.993-3.995-3.059-5.715c-1.004-0.836-3.297-0.988-4.675-0.299
											l-5.581,2.791c-0.845,0.422-1.081,1.052-0.655,1.61c0.195,0.255,0.336,0.52,0.423,0.789
											c0.189,0.59,1.023,1.076,2.178,1.231l7.621,1.021C201.053,91.574,202.886,90.868,202.92,89.894z"/>
									</g>
								</g>
							</g>
						</g>
						<path class="st24" d="M187.328,88.6c0,0-0.62,3.376-6.133,3.373c-5.513-0.002-6.155-3.373-6.155-3.373
							s2.825,2.282,5.572,2.282C182.637,90.882,184.679,90.716,187.328,88.6z"/>
						<path class="st24" d="M191.216,92.798c0,0,7.742,0.344,7.097,1.305c-0.645,0.961-6.75,4.222-7.693,3.907
							c-0.943-0.315-2.782-2.3-2.782-2.3s2.037,1.275,2.831,1.109c0.794-0.166,6.998-2.287,5.856-2.715
							C195.384,93.675,191.216,92.798,191.216,92.798z"/>
						<path class="st24" d="M181.195,94.914c0,0,2.825,3.923,0.988,4.072c-1.836,0.149-11.464-0.695-11.464-1.241
							s5.558-3.641,5.558-3.641s-4.516,2.807-3.97,3.026c0.546,0.219,8.544,1.395,8.888,0.881
							C181.538,97.496,181.195,94.914,181.195,94.914z"/>
						<path class="st24" d="M172.874,91.607c0,0-6.572,3.507-7.416,3.259c-0.844-0.248-3.226-1.813-4.417-5.175
							c1.191,0.596,1.687,4.034,4.417,3.934C168.188,93.526,172.874,91.607,172.874,91.607z"/>
					</g>
					<g>
						<g>
							<g>
								<path class="st29" d="M111.011,60.056c-5.655,2.828-5.423,7.745-5.108,11.448c0.282,3.313,2.952,6.584,8.011,9.113
									c10.714,5.357,28.085,5.357,38.799,0c5.357-2.678,8.035-6.189,8.035-9.699c0-3.511,0.855-7.041-4.502-9.719
									C145.531,55.842,121.725,54.699,111.011,60.056z"/>
								<path class="st30" d="M113.913,57.812c-10.714,5.357-10.714,14.042,0,19.399c10.714,5.357,28.085,5.357,38.799,0
									c10.714-5.357,10.714-14.042,0-19.399C141.997,52.455,124.627,52.455,113.913,57.812z"/>
								<path class="st31" d="M115.806,58.759c-9.668,4.834-9.668,12.672,0,17.506c9.668,4.834,25.343,4.834,35.012,0
									c9.668-4.834,9.668-12.672,0-17.506C141.15,53.924,125.475,53.924,115.806,58.759z"/>
							</g>
							<path class="st32" d="M136.058,64.535v15.239c-2.016,0.146-4.091,0.164-6.311,0l0.433-15.727L136.058,64.535z"/>
							<g>
								<g>
									<path class="st29" d="M139.525,65.309c3.446,1.723,3.446,4.517,0,6.24s-9.033,1.723-12.479,0
										c-3.446-1.723-3.446-4.517,0-6.24C130.492,63.586,136.079,63.586,139.525,65.309z"/>
									<g>
										<path class="st29" d="M124.035,66.463c1.156,0.155,2.366-0.059,3.12-0.524c0.171-0.105,0.353-0.206,0.546-0.303
											c0.193-0.096,0.395-0.187,0.605-0.273c0.929-0.377,1.357-0.982,1.047-1.56l-2.043-3.812
											c-0.504-0.94-2.636-1.382-4.34-0.912c-1.749,0.482-3.363,1.087-4.787,1.799c-1.424,0.712-2.634,1.519-3.598,2.393
											c-0.117,0.106-0.316-0.681-0.378-0.57c-0.434,0.778,0.559,2.52,2.203,2.74L124.035,66.463z"/>
										<path class="st29" d="M122.26,77.571c3.465,1.04,7.469,1.572,11.516,1.528c1.914-0.021,3.333-1.98,2.837-2.905
											l-2.109-2.78c-0.309-0.577-1.282-0.994-2.462-1.089c-0.539-0.043-1.069-0.114-1.579-0.211
											c-1.116-0.213-2.375-0.095-3.22,0.328l-5.582,2.791c-0.49,0.245-0.779-0.588-0.858-0.277
											C120.661,75.52,121.182,77.247,122.26,77.571z"/>
										<path class="st29" d="M125.913,69.84c-0.195-0.255-0.336-0.52-0.423-0.789c-0.189-0.59-1.023-1.076-2.177-1.231
											l-7.622-1.021c-1.849-0.248-3.711-0.333-3.752,0.624c-0.087,2.024,0.981,4.787,3.062,6.52
											c1.004,0.836,3.297,0.988,4.675,0.299l5.582-2.791C126.103,71.027,126.339,70.398,125.913,69.84z"/>
										<path class="st29" d="M134.528,64.532c0.539,0.043,1.069,0.114,1.579,0.211c1.116,0.213,2.375,0.095,3.22-0.328
											l5.581-2.791c0.837-0.418,1.127-2.063,0.793-2.572c-0.216-0.329-0.735,0.432-1.391,0.235
											c-3.465-1.041-7.469-1.572-11.516-1.529c-1.914,0.021-3.266-0.242-2.77,0.682l2.042,5.002
											C132.376,64.02,133.348,64.437,134.528,64.532z"/>
										<path class="st29" d="M139.26,76.866c0.504,0.94,2.636,1.382,4.34,0.912c1.749-0.482,3.364-1.087,4.787-1.799
											c1.423-0.712,2.633-1.519,3.598-2.393c0.417-0.378,0.546-1.846,0.317-2.218c-0.287-0.467-1.096,0.188-2.142,0.048
											l-7.625-1.021c-1.156-0.155-2.366,0.059-3.12,0.524c-0.171,0.105-0.353,0.206-0.546,0.303
											c-0.193,0.096-0.395,0.187-0.605,0.273c-0.929,0.377-1.357,0.982-1.047,1.56L139.26,76.866z"/>
										<path class="st29" d="M154.628,68.631c0.07-2.009-0.993-3.995-3.059-5.715c-1.004-0.836-3.297-0.988-4.675-0.299
											l-5.581,2.791c-0.845,0.422-1.081,1.052-0.655,1.61c0.195,0.255,0.336,0.52,0.423,0.789
											c0.189,0.59,1.023,1.076,2.178,1.231l7.621,1.021C152.761,70.311,154.594,69.606,154.628,68.631z"/>
									</g>
								</g>
								<g>
									<path class="st28" d="M139.525,64.118c3.446,1.723,3.446,4.517,0,6.24s-9.033,1.723-12.479,0
										c-3.446-1.723-3.446-4.517,0-6.24C130.492,62.395,136.079,62.395,139.525,64.118z"/>
									<g>
										<path class="st28" d="M124.035,65.272c1.156,0.155,2.366-0.059,3.12-0.524c0.171-0.105,0.353-0.206,0.546-0.303
											c0.193-0.096,0.395-0.187,0.605-0.273c0.929-0.377,1.357-0.982,1.047-1.56L127.31,58.8
											c-0.504-0.94-2.636-1.382-4.34-0.912c-1.749,0.482-3.363,1.087-4.787,1.799c-1.424,0.712-2.634,1.519-3.598,2.393
											c-0.939,0.852-0.054,1.918,1.825,2.17L124.035,65.272z"/>
										<path class="st28" d="M122.26,76.38c3.465,1.04,7.469,1.572,11.516,1.529c1.914-0.021,3.266-0.949,2.77-1.874
											l-2.042-3.811c-0.309-0.577-1.282-0.994-2.462-1.089c-0.539-0.043-1.069-0.114-1.579-0.211
											c-1.116-0.213-2.375-0.095-3.22,0.328l-5.582,2.791C120.283,74.731,120.588,75.878,122.26,76.38z"/>
										<path class="st28" d="M125.913,68.649c-0.195-0.255-0.336-0.52-0.423-0.789c-0.189-0.59-1.023-1.076-2.177-1.231
											l-7.622-1.021c-1.849-0.248-3.706,0.428-3.747,1.385c-0.087,2.024,0.976,4.026,3.057,5.758
											c1.004,0.836,3.297,0.988,4.675,0.299l5.582-2.791C126.103,69.836,126.339,69.207,125.913,68.649z"/>
										<path class="st28" d="M134.528,63.341c0.539,0.043,1.069,0.114,1.579,0.211c1.116,0.213,2.375,0.095,3.22-0.328
											l5.581-2.791c1.378-0.689,1.074-1.836-0.598-2.338c-3.465-1.04-7.469-1.572-11.516-1.529
											c-1.914,0.021-3.266,0.949-2.77,1.874l2.042,3.811C132.376,62.829,133.348,63.246,134.528,63.341z"/>
										<path class="st28" d="M139.26,75.675c0.504,0.94,2.636,1.382,4.34,0.912c1.749-0.482,3.364-1.087,4.787-1.799
											c1.423-0.712,2.633-1.519,3.598-2.393c0.939-0.852,0.055-1.918-1.825-2.17l-7.625-1.021
											c-1.156-0.155-2.366,0.059-3.12,0.524c-0.171,0.105-0.353,0.206-0.546,0.303c-0.193,0.096-0.395,0.187-0.605,0.273
											c-0.929,0.377-1.357,0.982-1.047,1.56L139.26,75.675z"/>
										<path class="st28" d="M154.628,67.44c0.07-2.009-0.993-3.995-3.059-5.715c-1.004-0.836-3.297-0.988-4.675-0.299
											l-5.581,2.791c-0.845,0.422-1.081,1.052-0.655,1.61c0.195,0.255,0.336,0.52,0.423,0.789
											c0.189,0.59,1.023,1.076,2.178,1.231l7.621,1.021C152.761,69.12,154.594,68.415,154.628,67.44z"/>
									</g>
								</g>
							</g>
						</g>
						<path class="st24" d="M139.036,66.146c0,0-0.62,3.376-6.133,3.373c-5.513-0.002-6.155-3.373-6.155-3.373
							s2.825,2.282,5.572,2.282C134.345,68.429,136.387,68.263,139.036,66.146z"/>
						<path class="st24" d="M142.924,70.345c0,0,7.742,0.343,7.097,1.305c-0.645,0.962-6.749,4.222-7.693,3.907
							c-0.943-0.315-2.782-2.3-2.782-2.3s2.037,1.275,2.831,1.109c0.794-0.166,6.998-2.287,5.856-2.716
							C147.092,71.222,142.924,70.345,142.924,70.345z"/>
						<path class="st24" d="M132.903,72.46c0,0,2.825,3.923,0.988,4.072c-1.836,0.149-11.464-0.695-11.464-1.241
							s5.559-3.642,5.559-3.642s-4.516,2.807-3.97,3.026c0.546,0.219,8.544,1.395,8.888,0.881
							C133.246,75.043,132.903,72.46,132.903,72.46z"/>
						<path class="st24" d="M124.582,69.154c0,0-6.572,3.507-7.416,3.259c-0.844-0.248-3.226-1.813-4.417-5.175
							c1.191,0.595,1.687,4.034,4.417,3.934C119.896,71.073,124.582,69.154,124.582,69.154z"/>
					</g>
					<g>
						<g>
							<path class="st29" d="M219.614,162.423c1.373,0.687,2.486,0.13,2.486-1.243v-34.201c0-1.373-1.113-3.043-2.486-3.729
								l-10.037-5.087c-1.373-0.687-2.486-0.13-2.486,1.243s1.113,3.043,2.486,3.729l4.587,2.362
								c1.817,0.909,2.964,2.765,2.964,4.796v28.401C217.127,160.066,218.24,161.736,219.614,162.423z"/>
							<path class="st24" d="M216.845,123.211c0,0,2.726,0.846,3.29,1.88c0.564,1.034,0.658,8.554,0.658,8.554
								s-0.869-7.355-1.621-8.201c-0.752-0.846-5.811-3.44-5.811-3.44L216.845,123.211z"/>
						</g>
						<g>
							<path class="st29" d="M210.874,166.559c1.373,0.687,2.486,0.13,2.486-1.243v-34.201c0-1.373-1.113-3.043-2.486-3.73
								l-10.037-5.087c-1.373-0.687-2.486-0.13-2.486,1.243s1.113,3.043,2.486,3.729l4.587,2.362
								c1.816,0.908,2.964,2.765,2.964,4.796v28.401C208.387,164.202,209.5,165.872,210.874,166.559z"/>
							<path class="st24" d="M205.79,125.773c0,0,4.418,1.895,5.546,3.391c1.128,1.496,0.94,8.17,0.94,8.17
								s-0.814-6.488-1.705-7.818C209.679,128.186,205.79,125.773,205.79,125.773z"/>
						</g>
					</g>
				</g>
			</g>
		</g>
		<g>
			<polygon class="st2" points="75.658,107.82 75.658,71.299 57.992,79.916 57.992,116.438 			"/>
			<polygon class="st33" points="13.781,57.807 57.992,79.912 75.658,71.297 31.447,49.192 			"/>
			<g>
				<polygon class="st24" points="64.508,119.645 68.254,117.771 68.254,105.435 64.508,107.308 				"/>
				<polygon class="st25" points="57.992,104.05 64.508,107.308 68.254,105.44 61.738,102.182 				"/>
				<g>
					<polygon class="st26" points="57.992,116.378 64.508,119.637 64.508,107.301 57.992,104.042 					"/>
					<polygon class="st27" points="58.798,107.119 63.397,109.419 63.397,108.941 58.798,106.642 					"/>
					<polygon class="st27" points="58.798,108.549 63.397,110.849 63.397,110.371 58.798,108.071 					"/>
					<polygon class="st27" points="58.798,109.978 63.397,112.278 63.397,111.801 58.798,109.501 					"/>
					<polygon class="st27" points="58.798,111.408 63.397,113.708 63.397,113.23 58.798,110.93 					"/>
				</g>
			</g>
			<g>
				<g>
					<g>
						<polygon class="st34" points="13.78,94.327 57.992,116.438 57.992,79.916 13.78,57.805 						"/>
					</g>
					<path class="st35" d="M16.593,77.473c0,6.938,5.624,15.374,12.562,18.844c6.938,3.469,12.562,0.658,12.562-6.28
						s-5.624-15.374-12.562-18.844C22.217,67.724,16.593,70.535,16.593,77.473z"/>
					<polygon class="st23" points="47.082,110.982 57.992,116.438 57.992,79.916 47.082,74.46 					"/>
				</g>
				<polygon class="st23" points="13.781,59.964 47.082,76.618 47.082,74.46 13.781,57.806 				"/>
				<polygon class="st23" points="13.781,94.38 47.082,111.034 47.082,108.876 13.781,92.222 				"/>
			</g>
		</g>
	</g>
	<path d="M395.022,321.355"/>
</g>
</svg>