<!-- Generator: Adobe Illustrator 21.0.2, SVG Export Plug-In  -->
<svg version="1.1"
	 xmlns="http://www.w3.org/2000/svg" xmlns:xlink="http://www.w3.org/1999/xlink" xmlns:a="http://ns.adobe.com/AdobeSVGViewerExtensions/3.0/"
	 x="0px" y="0px" width="415.65px" height="412.037px" viewBox="0 0 415.65 412.037"
	 style="enable-background:new 0 0 415.65 412.037;" xml:space="preserve">
<style type="text/css">
	.st0{fill:#FFFFFF;}
</style>
<defs>
</defs>
<path class="st0" d="M257.578,216.426h-6.96c0.527-6.618,1.821-17.085,3.881-31.4C255.528,197.492,256.556,207.957,257.578,216.426z
	 M62.591,233.049c0.832,0,1.697-0.394,2.593-1.178c0.896-0.785,1.345-2.901,1.345-6.35V211.53c0-2.647-0.305-4.463-0.913-5.448
	c-0.608-0.985-1.601-1.478-2.977-1.478c-1.346,0-2.329,0.469-2.954,1.408c-0.624,0.938-0.936,2.778-0.936,5.518v13.529
	c0,3.295,0.295,5.449,0.888,6.466C60.23,232.541,61.214,233.049,62.591,233.049z M201.654,219.473v-29.045
	c0-3.386-0.113-5.556-0.336-6.51c-0.224-0.954-0.737-1.654-1.536-2.1c-0.801-0.446-2.305-0.67-4.514-0.67v49.177
	c2.913,0,4.706-0.561,5.378-1.686C201.318,227.516,201.654,224.46,201.654,219.473z M0,258.272h415.65v5.088l-22.217,8.639
	l-5.221,5.97l-0.962,32.794l-27.925,17.231l-10.587,31.05l-31.76,8.236l-19.267,26.556l-32.771-1.496L238.7,412.037l-30.872-11.084
	l-30.875,11.084l-26.239-19.697l-32.773,1.496L98.674,367.28l-31.76-8.236l-10.593-31.05l-27.915-17.231l-0.963-32.794l-5.809-6.641
	L0,263.36V258.272z M301.816,298.992l4.419-4.346l-5.058-5.143l-11.038,10.855l25.275,25.701l11.478-11.288l-5.057-5.143
	l-4.859,4.776l-5.558-5.651l4.135-4.066l-4.808-4.89l-4.137,4.067L301.816,298.992z M239.885,347.087l8.616,14.753l7.9-1.95
	l-8.638-34.998l-7.537,1.861l3.89,15.758l-8.942-14.512l-7.536,1.859l8.637,34.999l7.537-1.86L239.885,347.087z M259.639,327.703
	l12.248,26.104l8.405-3.944l-12.248-26.103l4.991-2.342l-3.064-6.53l-18.368,8.616l3.064,6.532L259.639,327.703z M294.092,342.165
	l13.189-9.229l-4.137-5.91l-5.583,3.905l-4.545-6.493l4.753-3.325l-3.934-5.619l-4.751,3.326l-3.92-5.602l5.077-3.553l-4.137-5.911
	l-12.684,8.877L294.092,342.165z M112.489,263.36c19.468,32.296,54.879,53.897,95.338,53.897c40.458,0,75.87-21.602,95.338-53.897
	H112.489z M218.853,330.678l-13.412,0.481l-3.439,36.195l9.594-0.344l0.326-6.496l3.317-0.119l0.731,6.457l9.482-0.34
	L218.853,330.678z M189.369,347.102c2.034,0.149,3.471-0.193,4.313-1.029c0.842-0.835,1.499-2.637,1.966-5.403
	c0.514-3.03,0.406-5.317-0.324-6.863c-0.729-1.546-1.831-2.616-3.303-3.215c-1.471-0.595-4.368-1.259-8.688-1.991l-6.48-1.098
	l-6.024,35.54l9.155,1.553l2.716-16.025c1.261,0.214,2.003,0.573,2.224,1.076c0.219,0.504,0.167,1.708-0.154,3.61l-2.003,11.81
	l8.502,1.44l1.589-9.374c0.485-2.867,0.707-4.634,0.662-5.296c-0.043-0.662-0.314-1.428-0.807-2.294
	C192.219,348.678,191.104,347.863,189.369,347.102z M153.359,350.629l-1.885,6.221l8.843,3.44l8.123-35.52l-12.506-4.865
	l-17.484,31.877l8.944,3.479l2.871-5.835L153.359,350.629z M122.337,335.343c0.097-0.461,0.574-1.35,1.432-2.67l14.733-22.662
	l-7.786-5.06l-11.625,17.883c-2.216,3.411-3.609,5.688-4.176,6.832c-0.569,1.146-0.825,2.416-0.77,3.816
	c0.053,1.398,0.571,2.841,1.552,4.328c0.979,1.486,2.364,2.811,4.152,3.972c1.614,1.05,3.179,1.71,4.697,1.978
	c1.518,0.27,2.957,0.153,4.319-0.352c1.362-0.504,2.419-1.172,3.171-2.004c0.749-0.831,1.869-2.392,3.357-4.682l13.129-20.198
	l-7.783-5.061l-14.476,22.273c-0.979,1.505-1.671,2.415-2.075,2.727c-0.406,0.312-0.855,0.309-1.348-0.013
	C122.409,336.171,122.241,335.801,122.337,335.343z M89.307,314.623c0.414,1.506,1.17,2.812,2.266,3.922
	c0.92,0.932,1.917,1.543,2.99,1.838c1.073,0.293,2.229,0.274,3.466-0.06l-1.233,2.427l4.103,4.15l13.76-13.604l-7.644-7.733
	l-3.896,3.853l1.317,1.333l-3.04,3.005c-1.193,1.181-2.081,1.886-2.663,2.121c-0.582,0.234-1.11,0.111-1.585-0.37
	c-0.434-0.439-0.543-0.911-0.324-1.417c0.219-0.509,0.905-1.33,2.057-2.467l12.301-12.163c1.309-1.294,2.194-2.024,2.656-2.191
	c0.462-0.167,0.894-0.046,1.297,0.362c0.465,0.47,0.574,0.949,0.329,1.441c-0.245,0.491-1.101,1.461-2.568,2.911l-2.328,2.303
	l6.527,6.601l1.108-1.096c2.1-2.076,3.511-3.854,4.231-5.33c0.721-1.478,0.852-3.251,0.393-5.32
	c-0.458-2.067-1.645-4.069-3.557-6.004c-1.942-1.966-3.989-3.111-6.137-3.437c-2.149-0.326-3.907-0.072-5.274,0.763
	c-1.366,0.834-3.273,2.462-5.723,4.884l-7.615,7.529c-1.763,1.743-3.023,3.114-3.781,4.109c-0.758,0.997-1.29,2.142-1.595,3.438
	C88.84,311.717,88.895,313.118,89.307,314.623z M43.622,263.36c23.7,67.86,88.266,116.55,164.208,116.552
	c75.944-0.002,140.504-48.691,164.201-116.552h-3.503c-8.579,24.039-22.389,45.594-40.073,63.281
	c-30.877,30.874-73.515,49.966-120.625,49.966c-47.112,0-89.749-19.092-120.627-49.966c-17.687-17.688-31.498-39.242-40.077-63.281
	H43.622z M119.398,233.049c1.441,0,2.385-0.523,2.834-1.57c0.447-1.046,0.672-3.401,0.672-7.064V187.38
	c0-3.971-0.201-6.456-0.6-7.457c-0.4-1-1.337-1.501-2.809-1.501c-1.441,0-2.394,0.532-2.857,1.594
	c-0.464,1.062-0.696,3.518-0.696,7.364v36.48c0,4.341,0.216,6.958,0.648,7.85C117.021,232.602,117.958,233.049,119.398,233.049z
	 M0,156.572h415.65v98.891H0V156.572z M330.104,187.796c0,3.972,0.536,7.234,1.609,9.789c1.072,2.557,2.425,4.557,4.057,6.004
	c1.633,1.446,4.962,3.771,9.989,6.972c5.025,3.172,8.18,5.434,9.461,6.788c1.249,1.355,1.872,4.233,1.872,8.635
	c0,2.001-0.328,3.51-0.984,4.525c-0.656,1.017-1.656,1.524-3.001,1.524c-1.345,0-2.281-0.4-2.81-1.201
	c-0.528-0.8-0.793-2.601-0.793-5.402v-9.098h-18.776v4.895c0,5.603,0.592,9.928,1.776,12.976c1.186,3.048,3.691,5.557,7.517,7.526
	c3.824,1.97,8.443,2.955,13.854,2.955c4.93,0,9.252-0.854,12.967-2.562c3.713-1.709,6.218-3.824,7.515-6.349
	c1.296-2.524,1.944-6.449,1.944-11.775c0-7.327-1.168-12.637-3.505-15.932c-2.337-3.293-8.006-7.507-17.006-12.645
	c-3.139-1.784-5.042-3.307-5.713-4.57c-0.702-1.263-1.053-3.142-1.053-5.637c0-1.941,0.312-3.389,0.937-4.344
	c0.624-0.955,1.545-1.433,2.761-1.433c1.121,0,1.922,0.354,2.402,1.062c0.479,0.708,0.72,2.355,0.72,4.941v5.54h18.776v-2.954
	c0-5.941-0.6-10.151-1.8-12.629c-1.201-2.478-3.65-4.533-7.348-6.165c-3.698-1.63-8.173-2.447-13.423-2.447
	c-4.803,0-8.901,0.747-12.294,2.24c-3.394,1.493-5.851,3.563-7.371,6.21C330.864,177.884,330.104,182.071,330.104,187.796z
	 M276.706,168.356l14.215,47.7v27.06h18.729v-27.06l14.743-47.7H305.82c-2.635,11.664-4.511,21.484-5.631,29.46
	c-0.372-5.048-2.009-14.869-4.911-29.46H276.706z M228.76,243.115h20.901l1.216-13.438h7.23l1.086,13.438h20.661l-11.56-74.759
	h-29.223L228.76,243.115z M175.05,243.115h25.5c4.834,0,8.452-0.254,10.854-0.763c2.4-0.508,4.418-1.399,6.051-2.678
	c1.632-1.277,2.777-3.048,3.434-5.31c0.656-2.264,0.984-6.749,0.984-13.461v-26.182c0-7.081-0.225-11.828-0.672-14.245
	c-0.449-2.417-1.569-4.611-3.361-6.581c-1.794-1.969-4.412-3.386-7.854-4.248c-3.44-0.861-10.044-1.292-19.809-1.292H175.05V243.115
	z M96.54,219.75c0,5.264,0.385,9.104,1.153,11.521c0.768,2.416,2.065,4.717,3.889,6.902c1.825,2.186,4.275,3.795,7.347,4.825
	c3.074,1.031,6.931,1.548,11.575,1.548c3.521,0,6.705-0.493,9.557-1.479c2.849-0.984,5.282-2.601,7.299-4.848
	c2.017-2.247,3.346-4.664,3.986-7.25c0.64-2.586,0.96-6.711,0.96-12.375v-24.935c0-5.665-0.296-9.79-0.888-12.376
	c-0.594-2.585-1.723-4.91-3.386-6.973c-1.665-2.062-4.178-3.81-7.54-5.242c-3.362-1.431-7.173-2.146-11.43-2.146
	c-5.219,0-9.66,1.032-13.327,3.094c-3.666,2.062-6.116,4.802-7.347,8.22c-1.233,3.417-1.85,8.558-1.85,15.423V219.75z
	 M39.348,211.622c0,8.251,0.152,13.808,0.456,16.67c0.304,2.863,1.36,5.596,3.169,8.197c1.809,2.601,4.378,4.594,7.708,5.979
	c3.328,1.385,7.603,2.078,12.822,2.078c4.194,0,7.867-0.601,11.021-1.802c3.152-1.2,5.635-2.886,7.443-5.056
	c1.809-2.17,2.92-4.533,3.337-7.088c0.415-2.556,0.623-6.449,0.623-11.684v-5.956c0-4.401-0.368-7.896-1.104-10.482
	c-0.737-2.586-2.466-4.803-5.186-6.649c-2.722-1.848-5.859-2.771-9.414-2.771c-2.816,0-5.186,0.501-7.107,1.501
	c-1.92,1.001-3.377,2.501-4.369,4.502v-11.913c0-2.801,0.047-4.664,0.144-5.586c0.096-0.924,0.464-1.678,1.104-2.263
	c0.641-0.584,1.457-0.878,2.45-0.878c1.184,0,2.12,0.309,2.81,0.924c0.687,0.616,1.071,1.377,1.152,2.286
	c0.079,0.909,0.12,3.102,0.12,6.581h19.4c0-4.679-0.751-8.558-2.257-11.636c-1.504-3.079-4.002-5.465-7.491-7.158
	c-3.49-1.693-7.957-2.539-13.399-2.539c-4.418,0-8.315,0.669-11.693,2.008c-3.377,1.339-6.043,3.349-7.997,6.026
	c-1.953,2.679-3.066,5.517-3.336,8.52c-0.273,3.001-0.409,8.951-0.409,17.846V211.622z M202.922,297.09l4.903,9.968l4.904-9.968
	l10.982-1.581l-7.936-7.753l1.882-10.936l-9.833,5.172l-9.833-5.172l1.902,10.936l-7.955,7.753L202.922,297.09z M240.033,284.812
	l3.417,6.939l3.418-6.939l7.648-1.101l-5.523-5.399l1.304-7.622l-6.847,3.608l-6.847-3.608l1.323,7.622l-5.542,5.399
	L240.033,284.812z M159.623,329.963c-3.385,6.091-5.769,10.578-7.15,13.465l2.977,1.159
	C156.493,340.611,157.884,335.737,159.623,329.963z M184.978,335.135l-1.339,7.903c1.029,0.175,1.775,0.153,2.236-0.062
	c0.463-0.215,0.825-1.106,1.092-2.672l0.329-1.953c0.19-1.127,0.117-1.9-0.221-2.318
	C186.735,335.614,186.036,335.314,184.978,335.135z M212.811,338.938c-0.697,6.934-1.11,11.997-1.237,15.195l3.193-0.115
	C214.152,349.955,213.499,344.928,212.811,338.938z M168.783,285.215l3.418,6.94l3.416-6.94l7.649-1.099l-5.523-5.403l1.305-7.621
	l-6.846,3.604l-6.848-3.604l1.325,7.621l-5.545,5.403L168.783,285.215z M246.868,126.824l-3.419-6.942l-3.415,6.942l-7.648,1.098
	l5.523,5.402l-1.308,7.621l6.848-3.605l6.849,3.605l-1.322-7.621l5.542-5.402L246.868,126.824z M175.615,127.226l-3.411-6.94
	l-3.42,6.94l-7.649,1.101l5.526,5.399l-1.307,7.623l6.85-3.609l6.846,3.609l-1.325-7.623l5.544-5.399L175.615,127.226z
	 M237.698,69.36l-2.196,9.619c1.21,0.231,2.02,0.208,2.431-0.07c0.412-0.278,0.775-1.112,1.093-2.499l0.732-3.206
	c0.336-1.473,0.391-2.398,0.165-2.777C239.697,70.047,238.956,69.691,237.698,69.36z M242.392,56.959
	c-0.277-0.183-0.853-0.381-1.727-0.595l-1.745,7.645c0.367,0.069,0.651,0.127,0.854,0.173c0.836,0.191,1.417,0.097,1.746-0.282
	c0.327-0.381,0.724-1.589,1.188-3.628c0.246-1.076,0.324-1.85,0.233-2.326C242.853,57.47,242.668,57.142,242.392,56.959z
	 M212.731,114.947l-4.908-9.967l-4.901,9.967l-10.984,1.582l7.934,7.752l-1.877,10.936l9.829-5.172l9.835,5.172l-1.898-10.936
	l7.954-7.752L212.731,114.947z M415.65,148.676v5.086H0v-5.086h17.05l-2.077-17.187l25.039-21.198l5.833-32.287L76.029,65.13
	l15.087-29.127l32.637-3.409l23.008-23.392l32.19,6.365L207.828,0l28.879,15.566l32.189-6.365l23.005,23.392l32.637,3.409
	l15.088,29.127l30.18,12.874l5.836,32.287l25.041,21.198l-2.077,17.187H415.65z M110.285,128.371l5.366-5.429L99.12,106.578
	l18.794,14.08l3.806-3.851l-14.79-18.901l16.935,16.733l5.369-5.428L104.16,84.414l-7.989,8.079l10.296,13.006l-7.251-5.426
	c-2.296-1.77-4.316-3.282-6.059-4.535l-7.946,8.035L110.285,128.371z M158.367,71.447l-10.284-13.051l-6.812,2.629l12.697,32.9
	l6.812-2.63l-5.772-14.957l10.01,13.322l7.142-2.757l-12.697-32.899l-6.812,2.628L158.367,71.447z M179.873,56.45l5.718-1.13
	l-1.368-6.924l-14.286,2.825l6.838,34.594l14.855-2.937l-1.368-6.922l-6.288,1.243l-1.503-7.607l5.352-1.058l-1.301-6.582
	l-5.352,1.058L179.873,56.45z M138.907,78.467c-1.944-3.066-3.376-5.167-4.294-6.304c-0.918-1.137-2.076-1.993-3.473-2.569
	c-1.397-0.575-2.865-0.74-4.404-0.494c-1.54,0.246-3.068,0.851-4.586,1.813c-1.6,1.015-2.827,2.181-3.679,3.495
	c-0.853,1.316-1.306,2.713-1.358,4.191c-0.053,1.478,0.248,2.883,0.903,4.213c0.655,1.329,1.932,3.488,3.83,6.481l3.232,5.093
	c1.946,3.067,3.377,5.168,4.295,6.305c0.917,1.137,2.076,1.993,3.472,2.568c1.399,0.575,2.865,0.74,4.406,0.496
	c1.538-0.246,3.067-0.851,4.586-1.814c1.6-1.015,2.826-2.181,3.678-3.495c0.853-1.315,1.306-2.711,1.359-4.189
	c0.053-1.479-0.248-2.882-0.903-4.213c-0.655-1.329-1.933-3.49-3.83-6.482L138.907,78.467z M303.165,148.676
	c-19.467-32.298-54.878-53.9-95.338-53.9c-40.46,0-75.872,21.602-95.338,53.9H303.165z M207.172,69.236l5.582-22.708l-8.018,0.278
	c-0.946,5.538-1.595,10.197-1.948,13.973c-0.244-2.374-1.11-6.979-2.603-13.814l-8.018,0.279l6.92,22.273l0.442,12.757l8.086-0.281
	L207.172,69.236z M296.351,80.828c-0.098,0.469-0.656,1.437-1.672,2.901l-3.494,5.035l7.175,4.98l1.91-2.752
	c1.877-2.706,3.043-4.848,3.5-6.427c0.457-1.58,0.296-3.277-0.483-5.089c-0.779-1.811-2.227-3.451-4.339-4.917
	c-1.557-1.081-3.127-1.759-4.71-2.036c-1.583-0.277-3.049-0.166-4.396,0.33c-1.347,0.497-2.45,1.22-3.311,2.17
	c-0.861,0.949-2.016,2.468-3.465,4.556l-5.873,8.464c-1.971,2.838-3.226,5.119-3.763,6.84c-0.539,1.721-0.403,3.456,0.405,5.2
	c0.81,1.745,2.264,3.347,4.366,4.807c2.023,1.403,4.051,2.111,6.086,2.126c2.036,0.013,3.69-0.466,4.964-1.441
	c1.274-0.974,2.952-2.961,5.033-5.96l0.784-1.129l-7.176-4.979l-2.527,3.641c-1.103,1.591-1.887,2.545-2.352,2.861
	c-0.464,0.316-0.961,0.288-1.496-0.082c-0.556-0.386-0.765-0.85-0.626-1.389c0.139-0.54,0.697-1.513,1.674-2.921l9.339-13.456
	c1.019-1.468,1.76-2.368,2.226-2.698c0.465-0.33,0.993-0.291,1.584,0.118C296.237,79.941,296.449,80.358,296.351,80.828z
	 M277.612,62.778l-11.546-5.101l-18.328,30.454l8.259,3.649l3.042-5.585l2.858,1.263l-2.134,5.988l8.163,3.607L277.612,62.778z
	 M250.675,55.955c-0.545-1.53-1.457-2.673-2.739-3.428c-1.281-0.754-3.265-1.437-5.947-2.049l-8.494-1.94l-7.85,34.379l9.849,2.249
	c3.425,0.782,5.737,1.093,6.936,0.936c1.199-0.16,2.181-0.739,2.941-1.743c0.762-1.004,1.407-2.668,1.938-4.99l0.729-3.187
	c0.511-2.237,0.538-3.978,0.086-5.222c-0.454-1.245-1.612-2.324-3.474-3.242c1.863-0.02,3.185-0.358,3.966-1.013
	c0.78-0.656,1.4-1.988,1.858-3.997C251.151,59.735,251.219,57.486,250.675,55.955z M330.065,103.367l-5.7-5.887l-12.548,6.736
	l9.843-9.53l-6.074-6.275l-25.337,24.528l6.075,6.274l10.861-10.514l-8.4,13.056l6.276,6.482l10.08-17.396L330.065,103.367z
	 M372.032,148.676C348.335,80.814,283.775,32.127,207.83,32.125C131.886,32.127,67.32,80.814,43.622,148.676h3.503
	c8.579-24.039,22.391-45.595,40.078-63.284c30.878-30.871,73.516-49.961,120.627-49.961c47.11,0,89.748,19.09,120.625,49.961
	c17.687,17.689,31.496,39.244,40.074,63.284H372.032z M264.214,81.647c1.209-3.832,2.8-8.527,4.769-14.085
	c-3.542,5.817-6.049,10.107-7.519,12.871L264.214,81.647z M128.557,78.457c-0.878-1.386-1.514-2.227-1.905-2.52
	c-0.391-0.292-0.815-0.295-1.27-0.007c-0.385,0.246-0.582,0.589-0.587,1.031c-0.006,0.442,0.478,1.43,1.451,2.962l8.823,13.904
	c1.096,1.728,1.84,2.752,2.232,3.071c0.391,0.32,0.832,0.324,1.322,0.012c0.502-0.318,0.676-0.753,0.521-1.31
	c-0.156-0.554-0.791-1.708-1.903-3.463L128.557,78.457z"/>
</svg>