<!-- Generator: Adobe Illustrator 21.0.2, SVG Export Plug-In  -->
<svg version="1.1"
	 xmlns="http://www.w3.org/2000/svg" xmlns:xlink="http://www.w3.org/1999/xlink" xmlns:a="http://ns.adobe.com/AdobeSVGViewerExtensions/3.0/"
	 x="0px" y="0px" width="138.041px" height="137.632px" viewBox="0 0 138.041 137.632"
	 style="enable-background:new 0 0 138.041 137.632;" xml:space="preserve">
<style type="text/css">
	.st0{fill:#FFFFFF;}
</style>
<defs>
</defs>
<path class="st0" d="M63.332,53.991c4.185,0,6.472-2.48,6.472-6.82V33.064c0-4.34-2.287-6.82-6.472-6.82
	c-4.185,0-6.472,2.48-6.472,6.82V47.17C56.86,51.51,59.147,53.991,63.332,53.991z M61.123,32.793c0-1.938,0.853-2.674,2.209-2.674
	c1.357,0,2.209,0.736,2.209,2.674v14.648c0,1.938-0.852,2.674-2.209,2.674c-1.356,0-2.209-0.736-2.209-2.674V32.793z M49.041,26.554
	h2.868v27.127h-4.263V32.987h-3.294v-3.022C47.646,29.964,48.382,28.375,49.041,26.554z M72.062,47.17c0,4.34,2.286,6.82,6.472,6.82
	c4.185,0,6.472-2.48,6.472-6.82V33.064c0-4.34-2.287-6.82-6.472-6.82c-4.186,0-6.472,2.48-6.472,6.82V47.17z M76.324,32.793
	c0-1.938,0.852-2.674,2.209-2.674c1.356,0,2.209,0.736,2.209,2.674v14.648c0,1.938-0.853,2.674-2.209,2.674
	c-1.357,0-2.209-0.736-2.209-2.674V32.793z M28.115,66.475v1.026c0,1.026,0.451,1.396,1.169,1.396c0.718,0,1.17-0.369,1.17-1.396
	c0-2.955-4.413-3.51-4.413-7.614c0-2.299,1.129-3.612,3.325-3.612c2.196,0,3.325,1.313,3.325,3.612v0.451h-2.134v-0.595
	c0-1.026-0.411-1.416-1.128-1.416c-0.719,0-1.129,0.39-1.129,1.416c0,2.955,4.412,3.51,4.412,7.614c0,2.298-1.149,3.611-3.366,3.611
	c-2.216,0-3.366-1.313-3.366-3.611v-0.883H28.115z M35.871,68.199h2.771l0.39,2.606h2.278L39.011,56.44h-3.304l-2.298,14.365h2.073
	L35.871,68.199z M37.246,58.985l1.088,7.265h-2.175L37.246,58.985z M43.278,70.805V58.492h-2.36V56.44h6.978v2.052h-2.361v12.313
	H43.278z M51.136,70.805h-2.257V56.44h2.257V70.805z M52.429,67.358v-0.883h2.134v1.026c0,1.026,0.452,1.396,1.169,1.396
	c0.718,0,1.17-0.369,1.17-1.396c0-2.955-4.412-3.51-4.412-7.614c0-2.299,1.128-3.612,3.324-3.612c2.196,0,3.325,1.313,3.325,3.612
	v0.451h-2.135v-0.595c0-1.026-0.41-1.416-1.128-1.416c-0.719,0-1.129,0.39-1.129,1.416c0,2.955,4.413,3.51,4.413,7.614
	c0,2.298-1.149,3.611-3.366,3.611S52.429,69.656,52.429,67.358z M62.709,58.492v4.33h2.915v2.053h-2.915v5.931h-2.257V56.44h5.972
	v2.052H62.709z M72.271,70.805h2.278L72.251,56.44h-3.304l-2.298,14.365h2.073l0.39-2.606h2.771L72.271,70.805z M69.398,66.25
	l1.088-7.265l1.087,7.265H69.398z M78.755,70.969c-2.216,0-3.365-1.313-3.365-3.611v-7.471c0-2.299,1.149-3.612,3.365-3.612
	s3.366,1.313,3.366,3.612v1.396h-2.134v-1.539c0-1.026-0.452-1.416-1.17-1.416s-1.169,0.39-1.169,1.416v7.758
	c0,1.026,0.451,1.396,1.169,1.396s1.17-0.369,1.17-1.396v-2.053h2.134v1.909C82.121,69.656,80.971,70.969,78.755,70.969z
	 M87.454,70.805h-2.257V58.492h-2.36V56.44h6.977v2.052h-2.36V70.805z M93.055,70.805h-2.257V56.44h2.257V70.805z M101.366,67.358
	v-7.471c0-2.299-1.21-3.612-3.427-3.612c-2.216,0-3.427,1.313-3.427,3.612v7.471c0,2.298,1.211,3.611,3.427,3.611
	C100.155,70.969,101.366,69.656,101.366,67.358z M96.769,67.501v-7.758c0-1.026,0.452-1.416,1.17-1.416
	c0.718,0,1.17,0.39,1.17,1.416v7.758c0,1.026-0.452,1.416-1.17,1.416C97.22,68.917,96.769,68.528,96.769,67.501z M107.952,56.44
	h2.011v14.365h-2.319l-2.811-10.404v10.404h-2.032V56.44h2.832l2.319,8.599V56.44z M31.53,79.279v-1.632
	c0-1.088-0.479-1.502-1.24-1.502c-0.762,0-1.241,0.414-1.241,1.502v8.227c0,1.088,0.479,1.479,1.241,1.479
	c0.761,0,1.24-0.392,1.24-1.479v-2.808h-1.088v-2.177h3.351v4.832c0,2.438-1.219,3.83-3.569,3.83c-2.35,0-3.569-1.393-3.569-3.83
	v-7.922c0-2.438,1.219-3.83,3.569-3.83c2.351,0,3.569,1.393,3.569,3.83v1.479H31.53z M35.231,85.743v-11.6h2.394v11.752
	c0,1.088,0.479,1.479,1.24,1.479c0.762,0,1.241-0.392,1.241-1.479V74.143h2.264v11.6c0,2.438-1.219,3.83-3.57,3.83
	C36.45,89.573,35.231,88.18,35.231,85.743z M45.983,86.613h2.938l0.414,2.765h2.416l-2.437-15.234h-3.504l-2.437,15.234h2.197
	L45.983,86.613z M47.441,76.841l1.154,7.704h-2.307L47.441,76.841z M57.866,89.377h2.438c-0.239-0.566-0.261-1.109-0.261-1.85
	v-2.352c0-1.588-0.392-2.741-1.589-3.242c1.066-0.501,1.567-1.523,1.567-3.091v-1.196c0-2.351-1.066-3.504-3.548-3.504H52.86v15.234
	h2.394v-6.203h0.828c1.088,0,1.566,0.522,1.566,1.938v2.394C57.648,88.746,57.735,88.985,57.866,89.377z M57.627,79.387
	c0,1.219-0.544,1.61-1.436,1.61h-0.937v-4.679h1.154c0.849,0,1.219,0.479,1.219,1.567V79.387z M63.59,86.613h2.938l0.414,2.765
	h2.415L66.92,74.143h-3.504l-2.438,15.234h2.198L63.59,86.613z M65.048,76.841l1.153,7.704h-2.307L65.048,76.841z M72.601,89.377
	h-2.155V74.143h3.003l2.459,9.118v-9.118h2.133v15.234h-2.459l-2.981-11.034V89.377z M81.568,89.377V76.319h-2.502v-2.176h7.4v2.176
	h-2.503v13.059H81.568z M89.903,76.319v4.244h3.286v2.176h-3.286v4.462h4.135v2.177h-6.529V74.143h6.529v2.176H89.903z
	 M97.913,76.319v4.244h3.287v2.176h-3.287v4.462h4.136v2.177h-6.529V74.143h6.529v2.176H97.913z M110.884,77.908
	c0-2.438-1.175-3.765-3.569-3.765h-3.787v15.234h3.787c2.394,0,3.569-1.327,3.569-3.766V77.908z M108.49,85.721
	c0,1.088-0.457,1.479-1.219,1.479h-1.349V76.319h1.349c0.762,0,1.219,0.392,1.219,1.48V85.721z M87.266,28.361
	c0,1.072,0.873,1.944,1.945,1.944c1.072,0,1.945-0.872,1.945-1.944s-0.873-1.945-1.945-1.945
	C88.139,26.416,87.266,27.289,87.266,28.361z M89.211,27.682c0.374,0,0.678,0.305,0.678,0.679c0,0.374-0.304,0.678-0.678,0.678
	c-0.374,0-0.678-0.304-0.678-0.678C88.533,27.987,88.837,27.682,89.211,27.682z M94.725,36.379c0-1.072-0.873-1.944-1.945-1.944
	c-1.073,0-1.945,0.872-1.945,1.944c0,1.073,0.873,1.945,1.945,1.945C93.852,38.325,94.725,37.453,94.725,36.379z M92.78,37.058
	c-0.374,0-0.678-0.305-0.678-0.679c0-0.373,0.304-0.678,0.678-0.678s0.678,0.305,0.678,0.678
	C93.458,36.753,93.154,37.058,92.78,37.058z M94.576,27.195l-6.386,11.06c-0.117,0.204-0.33,0.317-0.549,0.317
	c-0.107,0-0.216-0.027-0.316-0.085c-0.303-0.175-0.407-0.562-0.232-0.865l6.386-11.06c0.175-0.303,0.562-0.407,0.865-0.232
	C94.648,26.504,94.751,26.891,94.576,27.195z M25.981,44.505c-0.271,0-0.492-0.221-0.492-0.492c0-0.271,0.22-0.491,0.492-0.491H38.8
	c0.271,0,0.492,0.22,0.492,0.491c0,0.271-0.22,0.492-0.492,0.492H25.981z M106.43,92.708H27.416c-0.262,0-0.475-0.213-0.475-0.476
	c0-0.263,0.213-0.475,0.475-0.475h79.014c0.263,0,0.475,0.212,0.475,0.475C106.905,92.495,106.693,92.708,106.43,92.708z
	 M94.956,43.522h12.82c0.272,0,0.492,0.22,0.492,0.491c0,0.271-0.22,0.492-0.492,0.492h-12.82c-0.272,0-0.492-0.221-0.492-0.492
	C94.464,43.742,94.684,43.522,94.956,43.522z M77.3,109.113l-4.535,3.295c-0.177,0.128-0.266,0.402-0.198,0.61l1.732,5.331
	c0.286,0.879-0.092,1.153-0.84,0.61l-4.535-3.295c-0.176-0.129-0.465-0.129-0.642,0l-4.535,3.295
	c-0.747,0.543-1.125,0.269-0.84-0.61l1.732-5.331c0.067-0.208-0.022-0.482-0.198-0.61l-4.535-3.295
	c-0.747-0.543-0.603-0.987,0.321-0.987h5.605c0.218,0,0.452-0.17,0.519-0.377l1.732-5.331c0.286-0.879,0.752-0.879,1.038,0
	l1.732,5.331c0.067,0.207,0.301,0.377,0.519,0.377h5.605C77.903,108.125,78.048,108.57,77.3,109.113z M92.892,104.871l-3.53,2.564
	c-0.137,0.1-0.206,0.313-0.154,0.475l1.349,4.15c0.222,0.684-0.072,0.897-0.654,0.475l-3.53-2.564c-0.138-0.1-0.362-0.1-0.5,0
	l-3.53,2.564c-0.582,0.423-0.876,0.209-0.654-0.475l1.349-4.15c0.052-0.161-0.017-0.375-0.155-0.475l-3.53-2.564
	c-0.581-0.423-0.469-0.769,0.25-0.769h4.363c0.17,0,0.352-0.132,0.404-0.293l1.348-4.15c0.222-0.684,0.586-0.684,0.808,0l1.348,4.15
	c0.052,0.161,0.234,0.293,0.404,0.293h4.363C93.361,104.102,93.473,104.448,92.892,104.871z M104.502,105.722
	c0.157,0.484-0.051,0.636-0.462,0.337l-2.497-1.814c-0.097-0.071-0.256-0.071-0.353,0l-2.497,1.814
	c-0.411,0.299-0.619,0.147-0.462-0.337l0.954-2.936c0.037-0.114-0.012-0.265-0.109-0.336l-2.498-1.813
	c-0.411-0.3-0.332-0.544,0.177-0.544h3.086c0.12,0,0.249-0.094,0.286-0.208l0.954-2.936c0.157-0.483,0.414-0.483,0.572,0
	l0.954,2.936c0.037,0.114,0.165,0.208,0.286,0.208h3.087c0.509,0,0.588,0.244,0.177,0.544l-2.498,1.813
	c-0.097,0.071-0.146,0.222-0.109,0.336L104.502,105.722z M55.519,112.06c0.222,0.684-0.072,0.897-0.654,0.475l-3.53-2.564
	c-0.138-0.1-0.362-0.1-0.5,0l-3.53,2.564c-0.582,0.423-0.876,0.209-0.654-0.475l1.348-4.15c0.053-0.161-0.017-0.375-0.154-0.475
	l-3.53-2.564c-0.581-0.423-0.469-0.769,0.25-0.769h4.363c0.17,0,0.352-0.132,0.404-0.293l1.348-4.15
	c0.222-0.684,0.586-0.684,0.808,0l1.349,4.15c0.052,0.161,0.234,0.293,0.404,0.293h4.363c0.719,0,0.832,0.346,0.25,0.769
	l-3.53,2.564c-0.137,0.1-0.206,0.313-0.154,0.475L55.519,112.06z M38.978,105.722c0.157,0.484-0.051,0.636-0.462,0.337l-2.497-1.814
	c-0.097-0.071-0.256-0.071-0.353,0l-2.498,1.814c-0.411,0.299-0.62,0.147-0.462-0.337l0.954-2.936
	c0.037-0.114-0.012-0.265-0.109-0.336l-2.497-1.813c-0.412-0.3-0.332-0.544,0.177-0.544h3.086c0.12,0,0.249-0.094,0.286-0.208
	l0.954-2.936c0.157-0.483,0.415-0.483,0.572,0l0.954,2.936c0.037,0.114,0.166,0.208,0.286,0.208h3.087
	c0.508,0,0.588,0.244,0.176,0.544l-2.497,1.813c-0.097,0.071-0.146,0.222-0.109,0.336L38.978,105.722z M31.15,29.558
	c-0.262-0.285-0.243-0.729,0.042-0.991c0.281-0.263,0.725-0.248,0.987,0.037c0.267,0.285,0.248,0.729-0.038,0.992
	c-0.136,0.126-0.304,0.187-0.477,0.187C31.478,29.783,31.286,29.708,31.15,29.558z M33.943,27.088
	c-0.243-0.305-0.192-0.744,0.107-0.987c0.305-0.243,0.744-0.196,0.987,0.108c0.243,0.304,0.197,0.744-0.108,0.987
	c-0.13,0.102-0.285,0.154-0.439,0.154C34.284,27.35,34.084,27.261,33.943,27.088z M16.662,50.33
	c0.131-0.364,0.533-0.552,0.898-0.421c0.365,0.136,0.552,0.538,0.421,0.903c-0.108,0.28-0.374,0.458-0.66,0.458
	c-0.084,0-0.164-0.014-0.244-0.042C16.718,51.097,16.526,50.69,16.662,50.33z M46.598,19.266c-0.15-0.36,0.014-0.771,0.37-0.922
	c0.355-0.154,0.771,0.015,0.921,0.365c0.154,0.36-0.014,0.771-0.37,0.922c-0.088,0.042-0.182,0.061-0.276,0.061
	C46.972,19.692,46.715,19.528,46.598,19.266z M26.093,35.032c-0.294-0.248-0.337-0.692-0.093-0.987
	c0.248-0.299,0.692-0.341,0.992-0.093c0.294,0.243,0.336,0.688,0.093,0.986c-0.14,0.169-0.341,0.253-0.542,0.253
	C26.383,35.191,26.224,35.139,26.093,35.032z M28.53,32.21c-0.28-0.272-0.294-0.711-0.028-0.996c0,0.005,0,0.005,0,0.005
	c0.266-0.285,0.711-0.295,0.991-0.028c0.281,0.267,0.295,0.706,0.028,0.992c-0.14,0.145-0.323,0.22-0.51,0.22
	C28.839,32.403,28.666,32.337,28.53,32.21z M43.243,20.889c-0.177-0.341-0.042-0.767,0.304-0.94
	c0.342-0.178,0.767-0.042,0.945,0.305c0.173,0.346,0.037,0.768-0.305,0.944h-0.004c-0.103,0.052-0.211,0.075-0.318,0.075
	C43.613,21.273,43.365,21.132,43.243,20.889z M40.001,22.747c-0.196-0.332-0.088-0.767,0.244-0.964
	c0.332-0.201,0.763-0.093,0.963,0.239c0.196,0.332,0.089,0.763-0.243,0.963c-0.113,0.07-0.239,0.099-0.361,0.099
	C40.366,23.084,40.132,22.966,40.001,22.747z M36.9,24.815c-0.22-0.318-0.144-0.759,0.173-0.979c0.318-0.22,0.758-0.145,0.978,0.174
	c0.22,0.317,0.146,0.758-0.173,0.978c-0.121,0.084-0.262,0.126-0.402,0.126C37.256,25.114,37.035,25.011,36.9,24.815z
	 M90.152,18.709c0.15-0.351,0.566-0.519,0.921-0.365c0.355,0.15,0.52,0.562,0.37,0.922c-0.117,0.262-0.374,0.426-0.646,0.426
	c-0.094,0-0.187-0.019-0.276-0.061C90.166,19.481,89.998,19.07,90.152,18.709z M83.083,16.347c0.098-0.374,0.486-0.595,0.861-0.491
	c0.374,0.103,0.594,0.486,0.491,0.86c-0.084,0.313-0.37,0.519-0.678,0.519c-0.061,0-0.122-0.01-0.183-0.028
	C83.2,17.105,82.98,16.721,83.083,16.347z M93.548,20.253c0.178-0.347,0.604-0.482,0.945-0.305c0.346,0.174,0.481,0.6,0.304,0.94
	c-0.122,0.243-0.37,0.384-0.623,0.384c-0.107,0-0.215-0.023-0.318-0.075h-0.004C93.511,21.021,93.375,20.599,93.548,20.253z
	 M86.657,17.409c0.126-0.369,0.524-0.562,0.889-0.431c0,0,0,0,0-0.004c0.37,0.131,0.562,0.528,0.436,0.898
	c-0.104,0.285-0.374,0.468-0.664,0.468c-0.075,0-0.154-0.01-0.229-0.038C86.723,18.171,86.527,17.774,86.657,17.409z M96.833,22.022
	c0.201-0.332,0.631-0.44,0.963-0.239c0.333,0.196,0.44,0.632,0.244,0.964c-0.131,0.22-0.365,0.337-0.604,0.337
	c-0.122,0-0.248-0.028-0.36-0.099C96.744,22.785,96.636,22.354,96.833,22.022z M105.899,29.596
	c-0.286-0.263-0.304-0.707-0.038-0.992c0.262-0.285,0.707-0.3,0.987-0.037c0.286,0.262,0.305,0.706,0.043,0.991
	c-0.136,0.149-0.328,0.225-0.515,0.225C106.203,29.783,106.035,29.722,105.899,29.596z M100.164,24.988
	c-0.318-0.22-0.394-0.66-0.173-0.978c0.22-0.318,0.659-0.393,0.978-0.174c0.318,0.22,0.393,0.66,0.173,0.979
	c-0.136,0.196-0.356,0.299-0.576,0.299C100.425,25.114,100.285,25.072,100.164,24.988z M108.519,32.183
	c-0.267-0.286-0.252-0.726,0.028-0.992c0.281-0.267,0.725-0.257,0.991,0.028c0,0,0,0,0-0.005c0.267,0.285,0.253,0.725-0.027,0.996
	c-0.136,0.127-0.309,0.192-0.482,0.192C108.842,32.403,108.659,32.328,108.519,32.183z M103.111,27.196
	c-0.304-0.243-0.351-0.684-0.108-0.987c0.244-0.304,0.683-0.351,0.987-0.108c0.299,0.243,0.351,0.683,0.107,0.987
	c-0.14,0.173-0.341,0.262-0.547,0.262C103.396,27.35,103.241,27.298,103.111,27.196z M72.047,14.663
	c0.023-0.388,0.355-0.683,0.744-0.659c0.384,0.027,0.678,0.36,0.655,0.748c-0.023,0.37-0.332,0.655-0.697,0.655
	c-0.019,0-0.033,0-0.047,0C72.314,15.383,72.019,15.051,72.047,14.663z M60.89,15.154c-0.047-0.384,0.22-0.734,0.608-0.786
	c0.384-0.051,0.735,0.221,0.787,0.604c0.046,0.384-0.225,0.739-0.609,0.786c-0.028,0.005-0.061,0.01-0.088,0.01
	C61.241,15.767,60.936,15.509,60.89,15.154z M57.222,15.809c-0.075-0.379,0.169-0.749,0.548-0.823
	c0.378-0.08,0.753,0.168,0.828,0.547c0.075,0.384-0.168,0.753-0.552,0.828c-0.047,0.01-0.089,0.014-0.136,0.014
	C57.582,16.375,57.287,16.146,57.222,15.809z M53.606,16.716c-0.103-0.374,0.117-0.758,0.492-0.86
	c0.374-0.104,0.762,0.117,0.86,0.491c0.103,0.374-0.117,0.758-0.491,0.86c-0.062,0.018-0.122,0.028-0.183,0.028
	C53.975,17.236,53.69,17.03,53.606,16.716z M64.595,14.751c-0.023-0.388,0.271-0.721,0.655-0.748
	c0.388-0.024,0.72,0.271,0.744,0.659c0.028,0.389-0.267,0.721-0.655,0.744c-0.014,0-0.028,0-0.046,0
	C64.927,15.407,64.618,15.122,64.595,14.751z M75.757,14.971c0.052-0.383,0.402-0.654,0.786-0.604
	c0.388,0.052,0.655,0.402,0.608,0.786c-0.046,0.355-0.351,0.613-0.697,0.613c-0.028,0-0.061-0.005-0.089-0.01
	C75.982,15.71,75.71,15.355,75.757,14.971z M68.318,14.602c0-0.389,0.309-0.702,0.697-0.706c0.389,0,0.702,0.312,0.707,0.701
	c0,0.384-0.309,0.702-0.697,0.702h-0.004C68.632,15.299,68.318,14.991,68.318,14.602z M79.443,15.533
	c0.075-0.379,0.449-0.627,0.828-0.547c0.379,0.074,0.622,0.444,0.547,0.823c-0.065,0.337-0.36,0.565-0.688,0.565
	c-0.047,0-0.089-0.004-0.135-0.014C79.612,16.286,79.369,15.917,79.443,15.533z M50.059,17.873c-0.126-0.37,0.066-0.768,0.435-0.898
	c0,0.004,0,0.004,0,0.004c0.365-0.131,0.763,0.062,0.889,0.431c0.131,0.365-0.065,0.763-0.43,0.893
	c-0.075,0.028-0.155,0.038-0.229,0.038C50.434,18.34,50.163,18.158,50.059,17.873z M118.685,90.231
	c0.117-0.262,0.374-0.421,0.641-0.421c0.093,0,0.191,0.023,0.285,0.061c0.355,0.159,0.515,0.575,0.355,0.932
	c-0.159,0.351-0.571,0.51-0.926,0.355C118.685,90.999,118.526,90.582,118.685,90.231z M109.511,105.421
	c0.28,0.272,0.295,0.711,0.027,0.996c0-0.004,0-0.004,0-0.004c-0.266,0.285-0.711,0.294-0.991,0.027
	c-0.281-0.267-0.295-0.706-0.028-0.991c0.14-0.146,0.323-0.22,0.51-0.22C109.202,105.23,109.375,105.295,109.511,105.421z
	 M106.891,108.074c0.262,0.285,0.243,0.73-0.043,0.992c-0.28,0.262-0.725,0.248-0.987-0.038c-0.267-0.285-0.248-0.729,0.038-0.991
	c0.136-0.127,0.304-0.188,0.477-0.188C106.563,107.849,106.755,107.924,106.891,108.074z M104.098,110.544
	c0.243,0.304,0.192,0.743-0.107,0.986c-0.304,0.244-0.744,0.197-0.987-0.107c-0.243-0.304-0.196-0.744,0.108-0.987
	c0.13-0.103,0.285-0.154,0.439-0.154C103.756,110.282,103.958,110.371,104.098,110.544z M111.948,102.6
	c0.295,0.248,0.337,0.692,0.094,0.987c-0.248,0.3-0.693,0.342-0.992,0.094c-0.295-0.243-0.337-0.688-0.094-0.987
	c0.14-0.168,0.342-0.253,0.542-0.253C111.658,102.441,111.817,102.493,111.948,102.6z M121.38,87.302
	c-0.131,0.365-0.533,0.553-0.899,0.421c-0.365-0.136-0.552-0.537-0.421-0.902c0.108-0.281,0.374-0.459,0.66-0.459
	c0.084,0,0.164,0.015,0.243,0.043C121.323,86.536,121.515,86.942,121.38,87.302z M122.553,83.714
	c-0.107,0.374-0.501,0.59-0.87,0.481c-0.375-0.108-0.59-0.495-0.482-0.87c0.088-0.309,0.37-0.505,0.673-0.505
	c0.066,0,0.131,0.01,0.196,0.028C122.446,82.957,122.661,83.344,122.553,83.714z M114.184,99.621
	c0.313,0.229,0.388,0.664,0.159,0.978c-0.225,0.318-0.665,0.389-0.978,0.164c-0.318-0.225-0.388-0.665-0.164-0.982h0.005
	c0.136-0.188,0.351-0.291,0.57-0.291C113.918,99.489,114.058,99.532,114.184,99.621z M15.487,53.917
	c0.107-0.374,0.501-0.589,0.87-0.481c0.375,0.107,0.59,0.496,0.482,0.87c-0.089,0.309-0.37,0.505-0.673,0.505
	c-0.066,0-0.131-0.009-0.197-0.027C15.595,54.676,15.38,54.288,15.487,53.917z M101.141,112.818c0.22,0.317,0.145,0.758-0.173,0.978
	c-0.319,0.22-0.758,0.145-0.978-0.173c-0.22-0.318-0.145-0.758,0.173-0.978c0.121-0.085,0.262-0.127,0.402-0.127
	C100.785,112.518,101.006,112.622,101.141,112.818z M80.819,121.824c0.075,0.379-0.168,0.748-0.547,0.823
	c-0.379,0.079-0.753-0.169-0.828-0.548c-0.075-0.384,0.169-0.753,0.552-0.828c0.046-0.009,0.088-0.014,0.135-0.014
	C80.459,121.257,80.754,121.487,80.819,121.824z M73.446,122.88c0.023,0.389-0.271,0.721-0.655,0.749
	c-0.389,0.023-0.721-0.272-0.744-0.66c-0.028-0.388,0.267-0.72,0.655-0.743c0.014,0,0.028,0,0.047,0
	C73.114,122.226,73.423,122.511,73.446,122.88z M84.435,120.916c0.103,0.374-0.117,0.758-0.491,0.861
	c-0.375,0.103-0.763-0.117-0.861-0.491c-0.103-0.375,0.117-0.758,0.491-0.861c0.061-0.019,0.122-0.028,0.183-0.028
	C84.066,120.396,84.351,120.602,84.435,120.916z M94.798,116.743c0.178,0.342,0.042,0.768-0.304,0.94
	c-0.342,0.178-0.768,0.042-0.945-0.304c-0.173-0.347-0.038-0.768,0.304-0.945h0.004c0.103-0.052,0.211-0.075,0.318-0.075
	C94.428,116.359,94.676,116.5,94.798,116.743z M98.04,114.885c0.196,0.332,0.089,0.768-0.244,0.964
	c-0.332,0.201-0.762,0.094-0.963-0.238c-0.196-0.333-0.089-0.763,0.243-0.964c0.112-0.07,0.238-0.099,0.36-0.099
	C97.675,114.548,97.909,114.666,98.04,114.885z M87.982,119.76c0.126,0.369-0.066,0.768-0.436,0.898c0-0.005,0-0.005,0-0.005
	c-0.364,0.131-0.762-0.061-0.889-0.431c-0.131-0.365,0.065-0.763,0.431-0.894c0.075-0.028,0.154-0.037,0.229-0.037
	C87.607,119.292,87.878,119.475,87.982,119.76z M91.443,118.366c0.15,0.36-0.014,0.772-0.37,0.922
	c-0.355,0.154-0.772-0.014-0.921-0.365c-0.154-0.359,0.014-0.772,0.37-0.921c0.089-0.043,0.182-0.062,0.276-0.062
	C91.069,117.94,91.326,118.104,91.443,118.366z M77.151,122.478c0.047,0.384-0.22,0.734-0.608,0.786
	c-0.384,0.052-0.734-0.22-0.786-0.604c-0.047-0.384,0.225-0.739,0.608-0.786c0.028-0.005,0.061-0.009,0.089-0.009
	C76.8,121.866,77.105,122.123,77.151,122.478z M117.075,44.098c-0.183-0.342-0.052-0.768,0.294-0.949
	c0.342-0.183,0.768-0.052,0.945,0.295c0.182,0.341,0.051,0.762-0.29,0.944c-0.103,0.056-0.215,0.084-0.328,0.084
	C117.445,44.472,117.202,44.336,117.075,44.098z M117.075,93.534c0.126-0.238,0.37-0.374,0.622-0.374
	c0.112,0,0.225,0.028,0.328,0.084c0.341,0.183,0.472,0.604,0.29,0.945c-0.178,0.346-0.604,0.478-0.945,0.295
	C117.024,94.301,116.893,93.875,117.075,93.534z M118.685,47.401c-0.159-0.35,0-0.767,0.355-0.926
	c0.355-0.154,0.767,0.004,0.926,0.355c0.159,0.355,0,0.771-0.355,0.931c-0.094,0.037-0.192,0.06-0.285,0.06
	C119.059,47.822,118.802,47.663,118.685,47.401z M113.365,36.871c0.313-0.225,0.753-0.154,0.978,0.163
	c0.229,0.313,0.154,0.749-0.159,0.979c-0.126,0.089-0.267,0.131-0.407,0.131c-0.22,0-0.435-0.104-0.57-0.29h-0.005
	C112.977,37.535,113.047,37.095,113.365,36.871z M120.481,49.909c0.365-0.131,0.767,0.057,0.899,0.421
	c0.136,0.36-0.056,0.768-0.417,0.898c-0.08,0.028-0.159,0.042-0.243,0.042c-0.286,0-0.552-0.178-0.66-0.458
	C119.929,50.447,120.116,50.044,120.481,49.909z M115.246,40.908c-0.205-0.327-0.103-0.763,0.229-0.964
	c0.328-0.206,0.763-0.103,0.963,0.225c0.206,0.332,0.104,0.763-0.224,0.969c-0.117,0.07-0.244,0.103-0.37,0.103
	C115.611,41.24,115.381,41.123,115.246,40.908z M115.246,96.725c0.136-0.216,0.365-0.333,0.599-0.333
	c0.126,0,0.253,0.033,0.37,0.104c0.328,0.205,0.43,0.636,0.224,0.968c-0.201,0.328-0.636,0.431-0.963,0.225
	C115.143,97.487,115.041,97.052,115.246,96.725z M123.475,80.056c-0.079,0.379-0.454,0.617-0.832,0.537
	c-0.379-0.084-0.623-0.458-0.539-0.832v-0.005c0.071-0.327,0.361-0.552,0.683-0.552c0.052,0,0.098,0.005,0.15,0.019
	C123.316,79.303,123.559,79.677,123.475,80.056z M124.565,72.589c-0.004,0-0.004,0-0.004,0c-0.028,0.389-0.365,0.674-0.753,0.646
	c-0.383-0.028-0.674-0.365-0.646-0.753c0.028-0.37,0.337-0.65,0.702-0.65c0.019,0,0.033,0.005,0.052,0.005
	C124.303,71.864,124.593,72.202,124.565,72.589z M124.144,76.341c-0.056,0.384-0.412,0.65-0.795,0.595
	c-0.384-0.057-0.645-0.412-0.594-0.796c0.052-0.351,0.351-0.604,0.697-0.604c0.033,0,0.065,0.005,0.098,0.01
	C123.938,75.602,124.2,75.958,124.144,76.341z M124.724,68.814c0.005,0.388-0.309,0.706-0.697,0.706h-0.005
	c-0.384,0-0.697-0.309-0.702-0.692c-0.005-0.389,0.309-0.707,0.692-0.707C124.402,68.117,124.719,68.425,124.724,68.814z
	 M123.349,60.697c0.384-0.057,0.739,0.21,0.795,0.594c0.056,0.384-0.206,0.739-0.594,0.796c-0.033,0.004-0.065,0.009-0.098,0.009
	c-0.346,0-0.646-0.253-0.697-0.604C122.703,61.108,122.965,60.752,123.349,60.697z M123.807,64.397
	c0.388-0.027,0.725,0.257,0.753,0.646c0,0,0,0,0.004,0c0.028,0.389-0.262,0.726-0.65,0.754c-0.019,0-0.033,0.004-0.052,0.004
	c-0.365,0-0.673-0.28-0.702-0.65C123.133,64.762,123.424,64.425,123.807,64.397z M122.643,57.039
	c0.378-0.08,0.753,0.159,0.832,0.537c0.084,0.38-0.159,0.754-0.538,0.833c-0.052,0.015-0.098,0.02-0.15,0.02
	c-0.322,0-0.612-0.226-0.683-0.553v-0.005C122.02,57.497,122.263,57.123,122.643,57.039z M121.684,53.436
	c0.369-0.107,0.762,0.107,0.87,0.481c0.108,0.37-0.107,0.759-0.482,0.866c-0.065,0.019-0.13,0.027-0.196,0.027
	c-0.304,0-0.585-0.196-0.673-0.505C121.094,53.932,121.309,53.543,121.684,53.436z M112.042,34.044
	c0.243,0.295,0.201,0.739-0.094,0.987c-0.131,0.107-0.29,0.159-0.449,0.159c-0.201,0-0.402-0.084-0.542-0.253
	c-0.243-0.299-0.201-0.743,0.094-0.986C111.349,33.704,111.794,33.746,112.042,34.044z M69.722,123.035
	c-0.005,0.389-0.318,0.702-0.707,0.702c-0.388-0.005-0.697-0.318-0.697-0.706c0-0.389,0.313-0.697,0.702-0.697h0.004
	C69.413,122.334,69.722,122.652,69.722,123.035z M17.56,87.723c-0.365,0.132-0.767-0.056-0.898-0.421
	c-0.136-0.36,0.056-0.767,0.416-0.897c0.08-0.028,0.16-0.043,0.244-0.043c0.286,0,0.552,0.178,0.66,0.459
	C18.112,87.186,17.925,87.587,17.56,87.723z M19.356,47.401c-0.117,0.262-0.374,0.421-0.641,0.421c-0.093,0-0.191-0.023-0.285-0.06
	c-0.356-0.159-0.515-0.575-0.356-0.931c0.159-0.351,0.57-0.51,0.926-0.355C19.356,46.634,19.515,47.05,19.356,47.401z
	 M19.356,90.231c0.159,0.351,0,0.768-0.355,0.927c-0.356,0.154-0.767-0.005-0.926-0.355c-0.16-0.356,0-0.772,0.356-0.932
	c0.094-0.037,0.192-0.061,0.285-0.061C18.982,89.81,19.239,89.969,19.356,90.231z M20.966,93.534
	c0.182,0.342,0.051,0.768-0.295,0.95c-0.342,0.183-0.768,0.051-0.945-0.295c-0.182-0.342-0.051-0.763,0.29-0.945
	c0.103-0.056,0.215-0.084,0.328-0.084C20.596,93.16,20.839,93.295,20.966,93.534z M22.795,96.725
	c0.206,0.327,0.103,0.762-0.229,0.963c-0.328,0.206-0.762,0.104-0.963-0.225c-0.206-0.332-0.104-0.763,0.224-0.968
	c0.117-0.07,0.244-0.104,0.37-0.104C22.43,96.392,22.659,96.509,22.795,96.725z M20.966,44.098c-0.127,0.238-0.37,0.374-0.622,0.374
	c-0.112,0-0.225-0.028-0.328-0.084c-0.341-0.183-0.472-0.604-0.29-0.944c0.178-0.347,0.604-0.478,0.945-0.295
	C21.017,43.331,21.148,43.756,20.966,44.098z M15.399,80.593c-0.379,0.08-0.753-0.158-0.833-0.537
	c-0.084-0.379,0.159-0.753,0.538-0.833c0.052-0.014,0.098-0.019,0.15-0.019c0.323,0,0.613,0.225,0.683,0.552v0.005
	C16.021,80.135,15.777,80.509,15.399,80.593z M13.897,61.291c0.056-0.384,0.412-0.65,0.795-0.594
	c0.384,0.056,0.646,0.411,0.594,0.795c-0.051,0.35-0.351,0.604-0.697,0.604c-0.033,0-0.066-0.005-0.099-0.009
	C14.103,62.03,13.84,61.674,13.897,61.291z M13.476,65.042c0.005,0,0.005,0,0.005,0c0.028-0.389,0.365-0.673,0.753-0.646
	c0.383,0.028,0.673,0.365,0.646,0.754c-0.028,0.369-0.337,0.65-0.702,0.65c-0.019,0-0.033-0.004-0.052-0.004
	C13.738,65.768,13.447,65.431,13.476,65.042z M14.566,57.576c0.08-0.378,0.454-0.617,0.833-0.537
	c0.379,0.084,0.622,0.458,0.538,0.832v0.005c-0.07,0.327-0.36,0.553-0.683,0.553c-0.052,0-0.098-0.005-0.15-0.02
	C14.725,58.33,14.482,57.956,14.566,57.576z M13.317,68.814c0.005-0.389,0.323-0.697,0.711-0.693c0.384,0,0.697,0.318,0.692,0.707
	c-0.004,0.384-0.318,0.692-0.702,0.692h-0.004C13.625,69.52,13.312,69.202,13.317,68.814z M22.795,40.908
	c-0.136,0.215-0.365,0.332-0.599,0.332c-0.126,0-0.253-0.032-0.37-0.103c-0.328-0.206-0.43-0.637-0.224-0.969
	c0.201-0.327,0.636-0.431,0.963-0.225C22.898,40.145,23.001,40.581,22.795,40.908z M14.692,76.936
	c-0.384,0.056-0.739-0.211-0.795-0.595c-0.056-0.384,0.206-0.739,0.594-0.795c0.033-0.005,0.065-0.01,0.099-0.01
	c0.346,0,0.646,0.253,0.697,0.604C15.338,76.524,15.076,76.879,14.692,76.936z M14.234,73.235c-0.389,0.028-0.726-0.257-0.753-0.646
	c0,0,0,0-0.005,0c-0.028-0.388,0.262-0.726,0.65-0.753c0.018,0,0.033-0.005,0.052-0.005c0.364,0,0.673,0.28,0.702,0.65
	C14.907,72.87,14.617,73.207,14.234,73.235z M16.358,84.196c-0.369,0.108-0.763-0.108-0.87-0.481
	c-0.108-0.37,0.107-0.758,0.482-0.865c0.065-0.019,0.131-0.028,0.197-0.028c0.304,0,0.585,0.196,0.673,0.505
	C16.947,83.701,16.732,84.088,16.358,84.196z M51.383,120.223c-0.126,0.37-0.524,0.562-0.889,0.431c0,0,0,0,0,0.005
	c-0.37-0.131-0.561-0.529-0.435-0.898c0.104-0.285,0.375-0.468,0.665-0.468c0.074,0,0.154,0.009,0.229,0.037
	C51.318,119.46,51.515,119.858,51.383,120.223z M54.958,121.286c-0.098,0.374-0.486,0.594-0.86,0.491
	c-0.375-0.104-0.594-0.487-0.492-0.861c0.084-0.313,0.37-0.52,0.678-0.52c0.061,0,0.122,0.01,0.183,0.028
	C54.841,120.528,55.061,120.911,54.958,121.286z M24.839,99.78c0.224,0.317,0.154,0.758-0.164,0.982
	c-0.313,0.225-0.753,0.154-0.978-0.164c-0.229-0.313-0.155-0.749,0.159-0.978c0.126-0.089,0.267-0.132,0.407-0.132
	c0.22,0,0.435,0.104,0.57,0.291H24.839z M44.493,117.379c-0.178,0.346-0.604,0.481-0.945,0.304c-0.346-0.173-0.482-0.599-0.304-0.94
	c0.121-0.243,0.37-0.384,0.622-0.384c0.107,0,0.215,0.024,0.318,0.075h0.004C44.53,116.612,44.666,117.033,44.493,117.379z
	 M65.994,122.969c-0.023,0.389-0.355,0.684-0.744,0.66c-0.384-0.028-0.679-0.36-0.655-0.749c0.023-0.369,0.332-0.654,0.697-0.654
	c0.019,0,0.033,0,0.046,0C65.727,122.25,66.022,122.582,65.994,122.969z M58.597,122.099c-0.075,0.379-0.449,0.627-0.828,0.548
	c-0.379-0.075-0.623-0.444-0.548-0.823c0.065-0.337,0.36-0.566,0.688-0.566c0.047,0,0.089,0.005,0.136,0.014
	C58.429,121.346,58.672,121.715,58.597,122.099z M62.284,122.661c-0.052,0.384-0.403,0.655-0.787,0.604
	c-0.388-0.052-0.655-0.402-0.608-0.786c0.046-0.355,0.351-0.612,0.697-0.612c0.028,0,0.061,0.004,0.088,0.009
	C62.059,121.921,62.331,122.277,62.284,122.661z M47.889,118.922c-0.15,0.352-0.566,0.52-0.921,0.365
	c-0.355-0.149-0.52-0.562-0.37-0.922c0.117-0.262,0.374-0.426,0.646-0.426c0.094,0,0.188,0.019,0.276,0.062
	C47.875,118.151,48.043,118.563,47.889,118.922z M29.522,105.45c0.267,0.285,0.253,0.725-0.028,0.991
	c-0.28,0.267-0.725,0.258-0.991-0.027c0,0,0,0,0,0.004c-0.267-0.285-0.252-0.725,0.028-0.996c0.136-0.126,0.309-0.191,0.482-0.191
	C29.199,105.23,29.382,105.304,29.522,105.45z M27.085,102.694c0.243,0.3,0.201,0.744-0.093,0.987
	c-0.299,0.248-0.744,0.206-0.992-0.094c-0.243-0.295-0.201-0.739,0.093-0.987c0.131-0.107,0.29-0.159,0.449-0.159
	C26.743,102.441,26.944,102.526,27.085,102.694z M24.675,36.871c0.318,0.225,0.388,0.664,0.164,0.982h-0.005
	c-0.135,0.187-0.351,0.29-0.57,0.29c-0.14,0-0.281-0.042-0.407-0.131c-0.313-0.229-0.388-0.665-0.159-0.979
	C23.923,36.716,24.362,36.646,24.675,36.871z M41.208,115.611c-0.201,0.332-0.631,0.439-0.963,0.238
	c-0.332-0.196-0.44-0.632-0.244-0.964c0.131-0.22,0.365-0.337,0.604-0.337c0.122,0,0.248,0.028,0.361,0.099
	C41.298,114.848,41.404,115.278,41.208,115.611z M37.877,112.645c0.319,0.22,0.394,0.659,0.173,0.978
	c-0.22,0.317-0.659,0.393-0.978,0.173c-0.318-0.22-0.393-0.66-0.173-0.978c0.136-0.196,0.356-0.3,0.576-0.3
	C37.615,112.518,37.756,112.56,37.877,112.645z M34.93,110.436c0.305,0.243,0.351,0.684,0.108,0.987
	c-0.243,0.305-0.683,0.352-0.987,0.107c-0.299-0.243-0.351-0.683-0.107-0.986c0.141-0.174,0.341-0.263,0.548-0.263
	C34.645,110.282,34.799,110.334,34.93,110.436z M32.142,108.037c0.286,0.262,0.304,0.706,0.038,0.991
	c-0.262,0.286-0.706,0.3-0.987,0.038c-0.286-0.262-0.304-0.707-0.042-0.992c0.136-0.149,0.328-0.225,0.515-0.225
	C31.838,107.849,32.006,107.91,32.142,108.037z M136.222,68.67l-0.086-0.115c-2.092-2.823-2.404-6.588-0.805-9.717l0.066-0.128
	c2.114-4.136,0.832-9.198-2.996-11.83l-0.119-0.082c-2.896-1.99-4.413-5.449-3.916-8.928l0.02-0.143
	c0.657-4.599-2.2-8.971-6.675-10.217l-0.139-0.039c-3.385-0.942-5.943-3.722-6.603-7.173l-0.027-0.141
	c-0.872-4.562-4.993-7.771-9.63-7.496l-0.144,0.009c-3.507,0.207-6.829-1.591-8.574-4.641l-0.072-0.125
	c-2.306-4.032-7.246-5.727-11.543-3.963l-0.133,0.056c-3.25,1.335-6.976,0.713-9.616-1.605l-0.108-0.095
	c-3.491-3.064-8.713-3.064-12.204,0l-0.108,0.095c-2.641,2.318-6.367,2.94-9.617,1.605l-0.133-0.056
	c-4.297-1.765-9.236-0.069-11.542,3.963l-0.071,0.125c-1.745,3.05-5.067,4.848-8.575,4.641l-0.144-0.009
	c-4.637-0.274-8.758,2.934-9.63,7.496l-0.027,0.141c-0.66,3.451-3.218,6.23-6.603,7.173l-0.139,0.039
	c-4.475,1.246-7.331,5.618-6.675,10.217l0.02,0.143c0.497,3.479-1.021,6.938-3.916,8.928L5.64,46.88
	c-3.828,2.632-5.11,7.694-2.996,11.83l0.066,0.128c1.599,3.129,1.287,6.894-0.805,9.717L1.818,68.67
	c-2.766,3.732-2.334,8.937,1.008,12.162l0.104,0.1c2.529,2.44,3.456,6.103,2.394,9.451L5.28,90.521
	c-1.404,4.428,0.693,9.21,4.902,11.176l0.13,0.062c3.184,1.486,5.25,4.648,5.333,8.161l0.003,0.145
	c0.109,4.644,3.646,8.485,8.265,8.979l0.143,0.015c3.494,0.373,6.475,2.693,7.694,5.988l0.05,0.136
	c1.611,4.356,6.204,6.842,10.733,5.808l0.141-0.031c3.425-0.782,6.998,0.444,9.221,3.165l0.091,0.111
	c2.939,3.598,8.09,4.457,12.038,2.009l0.122-0.075c2.986-1.853,6.764-1.853,9.749,0l0.123,0.075
	c3.947,2.448,9.099,1.589,12.037-2.009l0.091-0.111c2.223-2.721,5.795-3.947,9.221-3.165l0.14,0.031
	c4.529,1.034,9.122-1.451,10.733-5.808l0.05-0.136c1.219-3.295,4.2-5.615,7.694-5.988l0.143-0.015
	c4.619-0.493,8.156-4.335,8.265-8.979l0.003-0.145c0.083-3.513,2.148-6.675,5.333-8.161l0.13-0.062
	c4.209-1.966,6.307-6.748,4.902-11.176l-0.043-0.138c-1.062-3.349-0.135-7.011,2.394-9.451l0.104-0.1
	C138.557,77.607,138.988,72.403,136.222,68.67z M69.021,131.388c-34.558,0-62.572-28.015-62.572-62.572S34.463,6.245,69.021,6.245
	c34.557,0,62.571,28.014,62.571,62.571S103.578,131.388,69.021,131.388z"/>
</svg>